<svg
   width="26.947914mm"
   height="7.29564mm"
   viewBox="0 0 26.947914 7.29564"
   version="1.1"
   xmlns="http://www.w3.org/2000/svg"
   xmlns:svg="http://www.w3.org/2000/svg">
    <path
       d="m 21.700476,3.999588e-5 c -0.011,-3.8e-4 -0.035,0.0060000041 -0.047,0.0060000041 -0.8227,-0.0235 -2.3148,0.22231 -3.7934,0.62933 -1.5537,0.42767 -3.0495,1.12831 -4.7374,1.66655 -0.7623,-0.35902 -1.5374,-0.70142 -2.3134,-0.97896 C 9.4580765,0.83968 8.1519745,0.52465 7.1265745,0.52465 c -0.2548,0 -0.5036,0.0161 -0.7459,0.0466 -0.2422,0.0306 -0.4806,0.076 -0.705,0.13402 -0.449,0.11601 -0.8589,0.2829 -1.2062,0.48948 -0.6197,0.36855 -1.0319,0.86969 -1.1188,1.43345 -0.3535,0.0117 -0.6906,0.0305 -0.9732,0.0641 -0.6699,0.0798 -1.1543,0.21427 -1.50330001,0.39041 -0.1745,0.0881 -0.3164,0.18619 -0.4313,0.29137 -0.4593,0.42071 -0.44279999848,0.95002 -0.44279999848,1.27612 0,0.21933 0.10899999848,0.46418 0.30879999848,0.73422 0.1998,0.27005 0.4974,0.55782 0.90320001,0.82162 0.203,0.1319 0.43,0.25806 0.6876,0.37293 0.5153,0.22973 1.1422,0.41495 1.888,0.51278 0.3729,0.0489 0.7785,0.0757 1.212,0.0757 0.408,0 0.8611,-0.0433 1.3344,-0.10489 1.552,-0.20203 3.375702,-0.68702 5.0404015,-1.20619 0.2801,-0.0873 0.4836,-0.16285 0.7517,-0.25057 0.2284,0.10377 0.4613,0.19948 0.6876,0.303 1.0805,0.49419 2.1316,0.97559 3.1117,1.38684 l 0.1165,-0.27386 c -0.9731,-0.40839 -2.0249,-0.89245 -3.1058,-1.38684 -0.1285,-0.0588 -0.2611,-0.11584 -0.3904,-0.17482 1.6083,-0.53815 2.9958,-1.04385 3.4205,-1.19455 0.044,-0.0156 0.2248,-0.0792 0.2797,-0.0991 0.8863,0.39983 1.8165,0.78855 2.7445,1.11297 0.7642,0.26713 1.4994,0.49233 2.1502,0.65846 0.6508,0.16615 1.217,0.27308 1.6374,0.29136 0.8379,0.0365 1.8856,-0.21695 2.7271,-0.67595 0.2104,-0.11472 0.4048,-0.24345 0.5827,-0.38457 0.1779,-0.14112 0.3347,-0.2931 0.4662,-0.46035 0.2628,-0.33448 0.4194,-0.72855 0.3904,-1.15375 -0.055,-0.81347 -0.4904,-1.36824 -1.113,-1.69569 -0.4062,-0.2136 -0.9046,-0.31803 -1.4276,-0.38459 -0.1187,-0.51912 -0.389,-0.88473 -0.7867,-1.1013 -0.2806,-0.15281 -0.6233,-0.23633 -1.0022,-0.29136 -0.2971,-0.0576 -0.5895,-0.0783 -0.8566,-0.0757 -0.018,1.7e-4 -0.04,-0.006 -0.058,-0.006 z m 0,0.29719000412 h 0.01 c 0.3279,0.0143 0.6124,0.0473 0.8799,0.0874 0.2424,0.0492 0.4851,0.11504 0.6992,0.22143 0.3647,0.18117 0.6509,0.44353 0.7925,0.8391 -0.1767,-0.0143 -0.3423,-0.0486 -0.5244,-0.0525 -2.7523,0.2813 -5.3664,1.13709 -8.0356,2.09193 -0.245,-0.12179 -0.5322,-0.24042 -0.7517,-0.36129 -0.1827,-0.10062 -0.3922,-0.19201 -0.5827,-0.29135 0.046,-0.0191 0.1468,-0.0526 0.1865,-0.0699 0.6783,-0.29564 2.1146,-0.90619 3.5837,-1.44511 1.466,-0.53783 2.9788,-1.00164 3.7468,-1.01974 z M 7.1269745,0.82166 c 0.2406,0 0.4991,0.0158 0.775,0.0524 0.2758,0.0365 0.5652,0.0945 0.868202,0.16317 1.2328995,0.27923 2.6538995,0.80435 4.0031995,1.42179 -0.8113,0.37738 -1.5342,0.73178 -2.5639,1.15378 -0.3646995,0.14945 -0.6851995,0.2509 -1.0371995,0.38459 -0.3889,-0.15491 -0.777302,-0.31221 -1.159602,-0.4487 -1.0765,-0.38439 -2.1196,-0.68414 -3.0883,-0.83326 -0.4419,-0.068 -0.8632,-0.0941 -1.2703,-0.0932 0.063,-0.30474 0.2375,-0.60427 0.5419,-0.86823 0.1249,-0.10832 0.2713,-0.20794 0.4312,-0.30302 0.3197,-0.19015 0.7005,-0.35071 1.1246,-0.46033 0.4241,-0.10962 0.8908,-0.16898 1.3752,-0.16899 z M 23.180576,2.10944 c 0.055,-0.002 0.1085,-7.1e-4 0.1573,0 0.281,0.006 0.5506,0.0218 0.8216,0.035 0,0.0701 6e-4,0.14007 -0.012,0.20978 -0.056,0.32132 -0.1874,0.63513 -0.3729,0.92068 -0.093,0.14277 -0.2031,0.27639 -0.3205,0.40207 -0.2347,0.25135 -0.5089,0.46289 -0.8041,0.61184 -0.1477,0.0745 -0.3011,0.13316 -0.4545,0.17481 -0.1534,0.0416 -0.3074,0.0659 -0.4604,0.0699 -0.318,0.008 -0.5924,-0.0299 -0.8216,-0.0932 -0.2206,-0.0609 -0.4005,-0.14708 -0.5419,-0.24474 0.2688,-0.0494 0.4778,-0.28221 0.4778,-0.56522 0,-0.31894 -0.2638,-0.57689 -0.5827,-0.57689 -0.029,0 -0.053,0.002 -0.082,0.006 -0.053,-0.005 -0.1099,-0.002 -0.169,0.006 -0.1661,0.0492 -0.3231,0.22047 -0.3438,0.48947 -0.012,0.15039 0.029,0.30466 0.1165,0.45451 0.087,0.14985 0.2218,0.29524 0.3963,0.41955 0.1745,0.12431 0.3925,0.23118 0.6526,0.303 0.2601,0.0718 0.5585,0.10813 0.9032,0.0991 0.1784,-0.005 0.356,-0.029 0.5303,-0.0757 0.1743,-0.0468 0.3481,-0.11511 0.5128,-0.19812 0.1646,-0.083 0.3224,-0.18371 0.472,-0.29717 0.1495,-0.11348 0.2905,-0.24068 0.4195,-0.37878 0.129,-0.13809 0.2466,-0.28466 0.3496,-0.44285 0.1031,-0.1582 0.1917,-0.32803 0.2623,-0.50113 0.071,-0.1731 0.12,-0.35327 0.1515,-0.5361 0.014,-0.0808 0.01,-0.16276 0.012,-0.24472 0.4281,0.0305 0.8342,0.0806 1.1654,0.18646 0.3036,0.0971 0.5476,0.237 0.7225,0.43121 0.1749,0.19419 0.2845,0.44736 0.3089,0.80413 0.012,0.17106 -0.014,0.3318 -0.07,0.48947 -0.056,0.15767 -0.1421,0.30894 -0.2564,0.45452 -0.1144,0.14557 -0.2571,0.2848 -0.4196,0.41371 -0.1625,0.12893 -0.3446,0.24785 -0.5419,0.35546 -0.3946,0.21522 -0.846,0.38596 -1.2936,0.4953 -0.4477,0.10933 -0.8929,0.1565 -1.2761,0.13985 -0.3818,-0.0166 -0.9267,-0.11666 -1.5675,-0.27971 -0.6408,-0.16302 -1.3753,-0.38784 -2.1327,-0.65263 -0.8202,-0.28671 -1.6568,-0.61802 -2.4532,-0.96729 0.6928,-0.25439 1.5962,-0.59619 2.8144,-0.99642 1.4143,-0.46463 2.9053,-0.88378 3.7294,-0.92069 z M 3.6307745,2.91942 c 1.2451,-0.007 2.715,0.35893 4.277,0.91483 0.2773,0.0987 0.5633,0.21711 0.844902,0.32632 -0.264,0.0961 -0.564102,0.21925 -0.804102,0.29718 -0.2756,0.0895 -0.5163,0.15781 -0.7459,0.2156 -0.278,0.0492 -0.6488,0.13985 -0.8099,0.13985 -0.6628,0 -1.3736,-0.23617 -1.9055,-0.60601 -0.501,-0.3484 -0.8193,-0.81013 -0.8565,-1.28777 z m -0.3031,0.006 c 0.019,0.2856 0.1075,0.55792 0.2681,0.80414 0.1784,0.27348 0.4304,0.51946 0.7225,0.72256 0.2922,0.2031 0.6311,0.36971 0.9848,0.48365 0.3538,0.11393 0.7235,0.17481 1.0897,0.17481 0.3798,0 0.9664,-0.11165 1.6724,-0.28553 0.419702,-0.10339 0.916002,-0.25748 1.392602,-0.39623 0.025,0.0104 0.05,0.0186 0.076,0.0291 0.5516995,0.22703 1.1008995,0.48785 1.6548995,0.73421 -0.3802,0.16823 -0.5263,0.24367 -0.9498,0.41373 -1.6532995,0.6639 -3.5650015,1.26447 -5.2385015,1.26447 -0.4211,0 -0.8117,-0.0286 -1.1713,-0.0757 -0.3595,-0.0471 -0.6901,-0.11477 -0.9906,-0.19813 -0.6009,-0.16674 -1.0837,-0.39467 -1.4626,-0.64098 -0.1894,-0.12314 -0.352,-0.24635 -0.48940001,-0.37293 -0.1375,-0.12658 -0.2504,-0.25455 -0.338,-0.37293 -0.1752,-0.23679 -0.2506,-0.44738 -0.2506,-0.5594 0,-0.16829 -0.01,-0.35106 0.035,-0.53026 0.041,-0.1792 0.1302,-0.35548 0.3147,-0.52444 0.092,-0.0845 0.2126,-0.16782 0.36710001,-0.24473 0.309,-0.15383 0.7542,-0.2833 1.3985,-0.36128 0.2621,-0.0317 0.5839,-0.052 0.9148,-0.0641 z m 10.4771015,0.0524 c 0.2704,0.13736 0.5607,0.26743 0.8158,0.40788 0.142,0.0782 0.3312,0.15458 0.4837,0.23308 -1.1841,0.4806 -2.2832,0.93476 -3.5429,1.41017 -0.551,-0.24678 -1.097,-0.4975 -1.6490995,-0.72838 0.1722995,-0.0519 0.3220995,-0.0858 0.4952995,-0.13985 1.3539,-0.42243 2.5785,-0.86126 3.3972,-1.1829 z"/>
</svg>
