<svg
   width="28.955601mm"
   height="6.72756mm"
   viewBox="0 0 28.9556 6.72756"
   version="1.1"
   id="svg1"
   xmlns="http://www.w3.org/2000/svg"
   xmlns:svg="http://www.w3.org/2000/svg">
  <g
     id="layer1">
    <path
       id="text2"
       d="m 2.7019004,6.72756 c -0.656,0 -0.9674,-0.34472 -0.9674,-0.76727 0,-0.47816 0.4559,-0.94519 0.5894,-0.94519 0.056,0 0.067,0.0222 0.067,0.0445 0,0.0222 -0.089,0.0889 -0.089,0.278 0,0.34471 0.2668,0.71166 0.8339,0.71166 1.112,0 2.4686,-1.70133 2.969,-2.31292 -0.8562,0.43367 -1.8459,0.86735 -3.2025,0.86735 C 1.0008004,4.60369 3.6926269e-7,3.4917 3.6926269e-7,2.49092 3.6926269e-7,1.50125 0.82290037,0.87854002 0.95640037,0.87854002 c 0.033,0 0.067,0.0222 0.067,0.0556 0,0.0778 -0.30030003,0.27799998 -0.30030003,0.84510998 0,1.15646 1.05640003,2.09053 2.79110003,2.09053 1.3455,0 2.2796,-0.42256 3.1135,-0.82287 -1.0119,-1.08974 -2.2128,-2.45747998 -3.2581,-2.45747998 -0.4114,0 -0.5226,0.33359 -0.5226,0.56710998 0,0.51151 0.5115,0.9563 1.023,0.9563 0.1335,0 0.1891,-0.0334 0.2447,-0.0334 0.011,0 0.022,0 0.022,0.0222 0,0.0778 -0.2113,0.28912 -0.3114,0.36696 -0.1334,0.10008 -0.3113,0.18904 -0.556,0.18904 -0.4337,0 -0.9452,-0.32248 -0.9452,-0.98967 0,-0.93406998 0.8674,-1.667969978332519 1.5568,-1.667969978332519 1.1342,0 2.4575,1.556769978332519 3.525,2.679869978332519 0.4893,-0.21127 0.9785,-0.36695 1.5457,-0.36695 0.5337,0 0.8228,0.28912 0.8228,0.67831 0,0.68943 -0.7673,1.38998 -1.4678,1.38998 -0.3558,0 -0.8451,-0.45592 -1.4011,-1.04527 -0.078,0.0334 -0.1557,0.0667 -0.2224,0.11119 -0.8451,0.85623 -2.602,3.28036 -3.9809,3.28036 z m 6.5941,-3.31371 c 0,-0.30024 -0.2891,-0.53376 -0.7562,-0.53376 -0.278,0 -0.5448,0.0445 -0.8117,0.12232 0.4559,0.45591 0.8562,0.77839 1.1565,0.77839 0.2224,0 0.4114,-0.18904 0.4114,-0.36695 z M 26.2537,6.72756 c 0.6561,0 0.9674,-0.34472 0.9674,-0.76727 0,-0.47816 -0.4559,-0.94519 -0.5893,-0.94519 -0.056,0 -0.067,0.0222 -0.067,0.0445 0,0.0222 0.089,0.0889 0.089,0.278 0,0.34471 -0.2669,0.71166 -0.834,0.71166 -1.112,0 -2.4686,-1.70133 -2.969,-2.31292 0.8562,0.43367 1.8459,0.86735 3.2025,0.86735 1.9015,0 2.9023,-1.11199 2.9023,-2.11277 0,-0.98967 -0.8229,-1.61237998 -0.9563,-1.61237998 -0.033,0 -0.067,0.0222 -0.067,0.0556 0,0.0778 0.3002,0.27799998 0.3002,0.84510998 0,1.15646 -1.0564,2.09053 -2.7911,2.09053 -1.3455,0 -2.2795,-0.42256 -3.1135,-0.82287 1.0119,-1.08974 2.2128,-2.45747998 3.2581,-2.45747998 0.4114,0 0.5226,0.33359 0.5226,0.56710998 0,0.51151 -0.5115,0.9563 -1.023,0.9563 -0.1335,0 -0.1891,-0.0334 -0.2446,-0.0334 -0.011,0 -0.022,0 -0.022,0.0222 0,0.0778 0.2112,0.28912 0.3113,0.36696 0.1335,0.10008 0.3114,0.18904 0.556,0.18904 0.4337,0 0.9452,-0.32248 0.9452,-0.98967 C 26.6315,0.73390002 25.7642,2.1667481e-8 25.0747,2.1667481e-8 23.9405,2.1667481e-8 22.6172,1.55677 21.5497,2.67987 21.0605,2.4686 20.5712,2.31292 20.0041,2.31292 c -0.5338,0 -0.8229,0.28912 -0.8229,0.67831 0,0.68943 0.7673,1.38998 1.4678,1.38998 0.3559,0 0.8451,-0.45592 1.4011,-1.04527 0.078,0.0334 0.1557,0.0667 0.2224,0.11119 0.8451,0.85623 2.6021,3.28036 3.9809,3.28036 z M 19.6596,3.41385 c 0,-0.30024 0.2891,-0.53376 0.7562,-0.53376 0.278,0 0.5448,0.0445 0.8117,0.12232 -0.4559,0.45591 -0.8562,0.77839 -1.1564,0.77839 -0.2224,0 -0.4115,-0.18904 -0.4115,-0.36695 z" />
  </g>
</svg>
