<svg
   width="28.67403mm"
   height="6.3580036mm"
   viewBox="0 0 28.67403 6.3580036"
   version="1.1"
   id="svg1"
   xmlns="http://www.w3.org/2000/svg"
   xmlns:svg="http://www.w3.org/2000/svg">
  <path
     id="path18"
     d="M 15.186149,1.4136 C 15.132125,1.0057186 14.455947,0.25914983 14.337014,0.00379742 14.223283,0.26151037 13.544957,1.04747 13.496013,1.4664157 13.449831,1.8616554 13.946988,2.8721573 14.341086,2.8152806 14.736091,2.8654001 15.239871,1.819244 15.186149,1.4136 Z M 14.336645,2.2993736 C 14.182483,2.1376821 13.972182,1.6947618 13.980226,1.5233148 c 0.0168,-0.1218643 0.212627,-0.424215 0.365872,-0.64834335 0.150236,0.21032315 0.337781,0.48761405 0.356397,0.59949925 0.01221,0.1835964 -0.204897,0.6548768 -0.36585,0.8249029 z M 15.178016,1.4664157 C 15.129071,1.04747 14.450745,0.26151037 14.337003,0.00379742 14.21807,0.25914983 13.541892,1.0057186 13.487868,1.4136 c -0.05372,0.4056328 0.450058,1.4518001 0.845074,1.4016806 0.394098,0.056877 0.891255,-0.953614 0.845074,-1.3488649 z M 14.337383,2.2993736 C 14.17643,2.1293587 13.959328,1.6580783 13.971533,1.4744595 c 0.01862,-0.1118852 0.206161,-0.3891761 0.356397,-0.59949924 0.153234,0.22412834 0.349058,0.52649024 0.365873,0.64834344 0.008,0.1714581 -0.202257,0.6143784 -0.35642,0.7760699 z M 15.178016,1.4664157 C 15.129071,1.04747 14.450745,0.26151037 14.337003,0.00379742 14.21807,0.25914983 13.541892,1.0057186 13.487868,1.4136 c -0.05372,0.4056328 0.450058,1.4518001 0.845074,1.4016806 0.394098,0.056877 0.891255,-0.953614 0.845074,-1.3488649 z M 14.337383,2.2993736 C 14.17643,2.1293587 13.959328,1.6580783 13.971533,1.4744595 c 0.01862,-0.1118852 0.206161,-0.3891761 0.356397,-0.59949924 0.153234,0.22412834 0.349058,0.52649024 0.365873,0.64834344 0.008,0.1714581 -0.202257,0.6143784 -0.35642,0.7760699 z M 15.186149,1.4136 C 15.132125,1.0057186 14.455947,0.25914983 14.337014,0.00379742 14.223283,0.26151037 13.544957,1.04747 13.496013,1.4664157 13.449831,1.8616554 13.946988,2.8721573 14.341086,2.8152806 14.736091,2.8654001 15.239871,1.819244 15.186149,1.4136 Z M 14.336645,2.2993736 C 14.182483,2.1376821 13.972182,1.6947618 13.980226,1.5233148 c 0.0168,-0.1218643 0.212627,-0.424215 0.365872,-0.64834335 0.150236,0.21032315 0.337781,0.48761405 0.356397,0.59949925 0.01221,0.1835964 -0.204897,0.6548768 -0.36585,0.8249029 z M 15.178016,1.4664157 C 15.129071,1.04747 14.450745,0.26151037 14.337003,0.00379742 14.21807,0.25914983 13.541892,1.0057186 13.487868,1.4136 c -0.05372,0.4056328 0.450058,1.4518001 0.845074,1.4016806 0.394098,0.056877 0.891255,-0.953614 0.845074,-1.3488649 z M 14.337383,2.2993736 C 14.17643,2.1293587 13.959328,1.6580783 13.971533,1.4744595 c 0.01862,-0.1118852 0.206161,-0.3891761 0.356397,-0.59949924 0.153234,0.22412834 0.349058,0.52649024 0.365873,0.64834344 0.008,0.1714581 -0.202257,0.6143784 -0.35642,0.7760699 z M 15.186149,1.4136 C 15.132125,1.0057186 14.455947,0.25914983 14.337014,0.00379742 14.223283,0.26151037 13.544957,1.04747 13.496013,1.4664157 13.449831,1.8616554 13.946988,2.8721573 14.341086,2.8152806 14.736091,2.8654001 15.239871,1.819244 15.186149,1.4136 Z M 14.336645,2.2993736 C 14.182483,2.1376821 13.972182,1.6947618 13.980226,1.5233148 c 0.0168,-0.1218643 0.212627,-0.424215 0.365872,-0.64834335 0.150236,0.21032315 0.337781,0.48761405 0.356397,0.59949925 0.01221,0.1835964 -0.204897,0.6548768 -0.36585,0.8249029 z M 15.186149,1.4136 C 15.132125,1.0057186 14.455947,0.25914983 14.337014,0.00379742 14.223283,0.26151037 13.544957,1.04747 13.496013,1.4664157 13.449831,1.8616554 13.946988,2.8721573 14.341086,2.8152806 14.736091,2.8654001 15.239871,1.819244 15.186149,1.4136 Z M 14.336645,2.2993736 C 14.182483,2.1376821 13.972182,1.6947618 13.980226,1.5233148 c 0.0168,-0.1218643 0.212627,-0.424215 0.365872,-0.64834335 0.150236,0.21032315 0.337781,0.48761405 0.356397,0.59949925 0.01221,0.1835964 -0.204897,0.6548768 -0.36585,0.8249029 z M 15.178016,1.4664157 C 15.129071,1.04747 14.450745,0.26151037 14.337003,0.00379742 14.21807,0.25914983 13.541892,1.0057186 13.487868,1.4136 c -0.05372,0.4056328 0.450058,1.4518001 0.845074,1.4016806 0.394098,0.056877 0.891255,-0.953614 0.845074,-1.3488649 z M 14.337383,2.2993736 C 14.17643,2.1293587 13.959328,1.6580783 13.971533,1.4744595 c 0.01862,-0.1118852 0.206161,-0.3891761 0.356397,-0.59949924 0.153234,0.22412834 0.349058,0.52649024 0.365873,0.64834344 0.008,0.1714581 -0.202257,0.6143784 -0.35642,0.7760699 z m 0.09827,1.4277024 c 0.06002,0.2332797 0.381826,0.5851122 0.594946,0.2853459 0.05966,-0.083917 0.07152,-0.2099652 0.02611,-0.2516047 -0.04541,-0.04164 -0.130177,-0.00859 -0.166267,0.030172 -0.03609,0.038764 0.01709,0.099478 -0.01322,0.1290131 -0.03032,0.029546 -0.0865,0.025496 -0.103058,0.00759 -0.22819,-0.2468612 0.621191,-0.6186073 1.466064,-1.1047669 0.908048,-0.545162 1.664114,-1.0922147 1.149069,-1.6769018 -0.118374,-0.1343831 -0.326079,-0.18055346 -0.442932,-0.016188 -0.05966,0.083917 -0.07152,0.2099652 -0.02611,0.2516047 0.04541,0.041639 0.130177,0.00859 0.166267,-0.030173 0.03609,-0.038764 -0.01709,-0.099478 0.01323,-0.1290131 0.03032,-0.029546 0.0865,-0.025485 0.103047,-0.00759 0.418576,0.4528212 -3.037211,1.4629651 -2.767148,2.512511 z m -0.197278,0 c -0.06002,0.2332797 -0.381826,0.5851122 -0.594946,0.2853459 -0.05966,-0.083917 -0.07152,-0.2099652 -0.02611,-0.2516047 0.04541,-0.04164 0.130176,-0.00859 0.166267,0.030172 0.03609,0.038764 -0.01709,0.099478 0.01322,0.1290131 0.03032,0.029546 0.0865,0.025496 0.103058,0.00759 C 14.128054,3.6807311 13.278673,3.308985 12.4338,2.8228254 11.525753,2.2776634 10.769686,1.7306107 11.284731,1.1459236 c 0.118374,-0.1343831 0.32608,-0.18055346 0.442932,-0.016188 0.05966,0.083917 0.07152,0.2099652 0.02611,0.2516047 -0.04541,0.041639 -0.130176,0.00859 -0.166267,-0.030173 -0.03609,-0.038764 0.01709,-0.099478 -0.01323,-0.1290131 -0.03032,-0.029546 -0.0865,-0.025485 -0.103048,-0.00759 -0.418576,0.4528212 3.037212,1.4629651 2.767148,2.512511 z m 2.903108,-1.0348009 c 0.713163,-0.3659399 1.463278,-0.3566767 2.241787,-0.2385489 0.825317,0.1252317 1.65795,0.3189304 2.451976,0.598358 0.591388,0.2081192 1.197645,0.45036 1.752808,0.7429888 1.169654,0.6165377 2.061771,0.8836816 3.246237,1.0231885 0.599712,0.055277 1.240459,-0.026391 1.409802,-0.5627039 0.07207,-0.2282565 -0.171088,-0.4133968 -0.455036,-0.3331496 -0.266226,0.075235 -0.28077,0.3188633 -0.264078,0.578948 -0.17336,-0.2128403 -0.233336,-0.4243045 -0.13002,-0.6337886 0.09183,-0.1861695 0.24431,-0.297954 0.45366,-0.2923715 0.322387,0.00859 0.618909,0.1763582 0.731544,0.4845039 0.08832,0.2416143 0.111829,0.5576248 0.0093,0.7991943 -0.394098,0.9283528 -1.632901,1.507491 -2.83586,1.4951177 C 25.028801,6.3150796 24.302739,6.0657684 23.619357,5.8394138 21.98735,5.2988498 20.796563,4.7509021 20.664552,4.7029865 19.644462,4.3326612 18.57262,3.9539677 17.482173,3.8658557 16.999962,3.82689 16.514161,3.9897897 16.441565,4.2291554 c -0.07516,0.2478344 0.0081,0.5627038 0.251896,0.5891172 0.243762,0.026413 0.431766,-0.3601671 0.349405,-0.6581659 0.0158,0.057156 0.103383,0.130859 0.136799,0.1837307 0.09976,0.1578206 0.165675,0.3432518 0.04145,0.4870211 -0.307139,0.3554349 -1.246008,0.3167153 -1.222828,-0.6406577 0.0165,-0.6815028 0.541739,-1.1892989 1.143196,-1.4979257 z m 6.06875,2.47538 c 1.966141,0.8287403 3.457959,0.8687688 4.192848,0.2275182 -0.03672,0.032041 -0.233302,0.00331 -0.284362,0.00274 C 26.366221,5.3895237 25.562004,5.2513369 24.868967,4.9746837 21.283819,3.5435244 20.775318,3.3126835 19.870593,3.0793591 18.61455,2.755428 17.699902,2.8880322 17.18913,3.363754 c 1.773102,0.044213 3.774864,0.8571115 6.021103,1.8039011 z M 11.532546,2.6922751 C 10.819382,2.3263352 10.069267,2.3355984 9.2907582,2.4537262 8.4654413,2.5789579 7.6328079,2.7726566 6.8387822,3.0520842 6.2473938,3.2602034 5.6411374,3.5024442 5.0859739,3.795073 3.91632,4.4116107 3.0242032,4.6787546 1.8397372,4.8182615 1.2400143,4.8735384 0.59927827,4.7918704 0.4299346,4.2555576 0.35786536,4.0273011 0.6010235,3.8421608 0.8849709,3.922408 1.1511975,3.9976433 1.1657411,4.2412713 1.1490495,4.501356 1.3224095,4.2885157 1.3823851,4.0770515 1.2790695,3.8675674 1.1872545,3.6813979 1.034759,3.5696134 0.82540919,3.5751959 0.50302188,3.5837878 0.20649984,3.7515541 0.0938651,4.0596998 0.00554058,4.3013141 -0.01796415,4.6173246 0.08459074,4.8588941 0.47868928,5.7872469 1.7174925,6.3663851 2.9204512,6.3540118 3.645227,6.3150796 4.3712892,6.0657684 5.0546715,5.8394138 6.6866783,5.2988498 7.8774651,4.7509021 8.0094764,4.7029865 9.029566,4.3326612 10.101409,3.9539677 11.191856,3.8658557 c 0.48221,-0.038966 0.968012,0.123934 1.040607,0.3632997 0.07516,0.2478344 -0.0081,0.5627038 -0.251896,0.5891172 -0.243762,0.026413 -0.431766,-0.3601671 -0.349405,-0.6581659 -0.0158,0.057156 -0.103382,0.130859 -0.136799,0.1837307 -0.09976,0.1578206 -0.165674,0.3432518 -0.04145,0.4870211 C 11.760051,5.1862934 12.69892,5.1475738 12.67574,4.1902008 12.65924,3.508698 12.134002,3.0009019 11.532546,2.6922751 Z m -6.0687512,2.47538 C 3.497654,5.9963954 2.0058365,6.0364239 1.2709474,5.3951733 c 0.036717,0.032041 0.2333021,0.00331 0.2843614,0.00274 C 2.3078068,5.3895237 3.1120243,5.2513369 3.8050613,4.9746837 7.3902091,3.5435244 7.89871,3.3126835 8.803435,3.0793591 10.059478,2.755428 10.974126,2.8880322 11.484898,3.363754 9.711796,3.4079666 7.7100345,4.2208655 5.4637948,5.1676551 Z" />
</svg>
