<svg
   width="100.2553mm"
   height="10.33608mm"
   viewBox="0 0 100.2553 10.33608"
   version="1.1"
   id="svg1"
   xmlns="http://www.w3.org/2000/svg"
   xmlns:svg="http://www.w3.org/2000/svg">
  <path
     d="M 100.0328,8.67528 H 65.0535 c -0.033,0.0996 -0.07,0.19593 -0.1129,0.29224 h 35.3147 z M 0,8.9675 H 35.3146 C 35.2716,8.8712 35.2346,8.77489 35.2017,8.67527 H 0.2225 Z M 64.5454,8.67528 h -9.4976 l 0.2192,0.29224 h 9.1589 c 0.05,-0.093 0.09,-0.19262 0.1195,-0.29224 z M 35.8293,8.9675 h 9.1589 l 0.2192,-0.29223 h -9.4976 c 0.03,0.0997 0.07,0.19927 0.1196,0.29223 z M 63.5525,6.37394 c 2.0955,1.10152 1.1986,4.04217 -1.3217,3.3009 -0.1119,-0.44767 -0.6678,-0.235 -0.4317,0.0797 0.2337,0.28774 1.179,0.36691 1.7434,0.23911 2.5355,-0.53379 2.3334,-5.60208 -3.3607,-4.78863 l -0.096,0.0166 c 0.073,0.21993 0.1063,0.4777 0.1063,0.69073 1.2375,-0.19336 2.6172,0.0663 3.3607,0.4616 z M 40.0634,5.91234 c 0,-0.21302 0.033,-0.47079 0.1063,-0.69074 L 40.0737,5.205 c -5.694,-0.8134 -5.8962,4.25487 -3.3607,4.78866 0.5645,0.12785 1.5097,0.0486 1.7434,-0.23909 0.2361,-0.31472 -0.3197,-0.52736 -0.4317,-0.0797 -2.5203,0.74125 -3.4172,-2.1994 -1.3217,-3.30091 0.7435,-0.39529 2.1233,-0.65497 3.3607,-0.46162 z m 10.0642,4.4226 c 0.7359,0.0177 1.6059,-0.17188 2.6023,-0.67006 2.3378,-1.18871 4.6175,-3.09964 7.0003,-3.66287 0.011,-0.12662 -0.01,-0.47434 -0.103,-0.69404 C 56.6705,5.93705 53.3935,9.21242 50.8436,9.6981 50.5983,9.7448 50.3589,9.7778 50.1276,9.7926 49.8963,9.7778 49.6569,9.7449 49.4115,9.6981 46.8617,9.21242 43.5846,5.93705 40.6279,5.30797 c -0.094,0.21971 -0.1144,0.56746 -0.103,0.69404 2.3829,0.56323 4.6625,2.47416 7.0003,3.66287 0.9964,0.49818 1.8664,0.68788 2.6023,0.67006 z m 0,-5.90363 c 0.3666,-0.0152 0.7974,0.10066 1.0814,0.22576 0.3287,0.14243 0.6252,0.33687 0.8468,0.48152 C 51.3543,5.84011 50.6433,6.01655 50.1276,5.91534 49.6119,6.01655 48.901,5.84004 48.1994,5.13859 48.4209,4.99394 48.7175,4.7995 49.0463,4.65707 49.3302,4.53196 49.761,4.41609 50.1276,4.43131 Z m 0,-3.93459 c 1.4591,0.25541 2.7551,1.32731 2.5226,3.30358 -0.08,0.6602 -0.2586,0.92322 -0.3819,1.09587 v 0 l -0.02,0.0266 C 51.3555,4.29783 50.6479,4.09305 50.1308,4.1302 49.6138,4.0931 48.9062,4.29783 48.0134,4.92277 l -0.02,-0.0266 v 0 C 47.8701,4.72351 47.6915,4.4605 47.6115,3.8003 47.379,1.824 48.6751,0.75213 50.1341,0.49672 Z m 0,5.70801 c 0.1178,0.0153 0.2458,0.0192 0.384,0.01 0.6946,-0.0309 1.299,-0.42227 1.7866,-0.9099 0.3474,0.24011 0.6163,0.43406 0.9431,0.66748 -1.167,0.82923 -2.2227,1.26655 -3.1137,1.4142 -0.891,-0.14765 -1.9466,-0.58497 -3.1137,-1.4142 0.3268,-0.23342 0.5957,-0.42738 0.9431,-0.66748 0.4877,0.48763 1.092,0.87904 1.7866,0.9099 0.1382,0.01 0.2662,0.005 0.384,-0.01 z m 0,1.7142 c 1.0423,-0.0709 2.2932,-0.51885 3.6982,-1.5317 0.6421,0.44455 1.0514,0.70195 1.4479,0.93979 l 0.2756,-0.16937 c -0.109,-0.066 -0.6175,-0.35068 -1.4745,-0.94976 7.5216,-5.44667 6.9935,3.27474 2.3279,1.38146 L 56.1039,7.772 C 57.2713,8.35572 58.8647,8.27668 59.7535,7.10118 60.4114,6.24584 60.284,4.42678 58.4251,3.91651 56.6828,3.4353 54.9235,4.78669 53.4871,5.79611 52.9367,5.40387 52.7587,5.27418 52.4974,5.09209 53.9248,3.44517 53.2127,0.83917 50.8403,0.12744 50.6104,0.06224 50.371,0.02019 50.1276,0 49.8842,0.0202 49.6449,0.0622 49.4149,0.12744 47.0425,0.83917 46.3304,3.44517 47.7578,5.09209 47.4965,5.27418 47.3186,5.40387 46.7682,5.79611 45.3317,4.7867 43.5724,3.4353 41.8301,3.91651 39.9712,4.42678 39.8438,6.24585 40.5018,7.10118 41.3905,8.27668 42.9839,8.35572 44.1514,7.772 L 43.8525,7.58935 C 39.1869,9.48263 38.6588,0.76122 46.1804,6.20789 45.3235,6.80697 44.815,7.09155 44.7059,7.15765 l 0.2757,0.16937 c 0.3964,-0.23784 0.8057,-0.49524 1.4478,-0.93979 1.405,1.01285 2.656,1.46075 3.6982,1.5317 z"
     id="path1" />
</svg>
