<svg
   width="41.968525mm"
   height="5.0783243mm"
   viewBox="0 0 41.968524 5.0783243"
   version="1.1"
   id="svg1"
   xmlns="http://www.w3.org/2000/svg"
   xmlns:svg="http://www.w3.org/2000/svg">
  <g
     id="g1">
    <path
       d="m 41.436641,1.8855547 c -0.6785,-0.33247 -1.507,0.11188 -1.7098,0.91692 l -0.1057,0.41991 c -0.1307,-0.14967 -0.693,-0.86081 -1.7128,-1.33147 -1.489,-0.68724 -3.8627,-0.55102 -5.4243,-0.20112 -1.6709,0.37436 -3.0186,0.92522 -4.7801,1.3663 -2.5009,0.62625 -3.5796,-0.0328 -4.5525,-0.49361 0.5087,-0.007 1.4984,0.0446 1.4984,-0.33971 0,-0.19588 -0.262,-0.26774 -0.3903,-0.10698 -0.093,0.11636 -0.3037,0.14367 -0.4392,0.16615 -0.2249,0.0373 -0.4566,0.0476 -0.6841,0.0339 -0.1051,-0.007 -0.2062,-0.0249 -0.3099,-0.0406 -0.13,-0.0197 -0.1959,-0.0698 -0.2956,-0.15972 -0.2448,-0.22095 -0.4393,-0.48973 -0.6222,-0.7623 -0.092,-0.13679 -0.1779,-0.27831 -0.2739,-0.41218004 -0.097,-0.13583 -0.2373,-0.12148 -0.3793,-0.0476 -0.1217,0.0633 -0.2161,0.10568 -0.3521,0.13198004 -0.1313,0.0255 -0.2642,0.0431 -0.3969,0.059 -0.027,0.003 -0.2601,0.0498 -0.2738,0.0306 -0.2364,-0.32896004 -0.841,-1.31585004 -1.3878,-1.07860004 -0.1943,0.0843 -0.1897,0.19719 -0.16,0.38047 0.031,0.19334 0.163,0.41568 0.344,0.58094 0.2809,0.25659004 0.4417,0.33717004 1.0275,0.51488004 0.3349,0.10163 0.6563,0.62696 0.4993,0.81617 -0.1984,0.239 -0.6802,0.14821 -1.22,-0.22986 -0.2801,-0.19621 -0.8643,-0.49141 -1.2981,-0.65597 -0.9118,-0.34581 -1.9129,-0.40919 -2.8773,-0.3273 -0.9361,0.0795 -1.6176,0.29223 -5.2219002,1.56385 -2.1645,0.76361 -2.9912,0.92189 -4.4003,0.84232 -1.1482,-0.0648 -2.5899,-0.51254 -3.1263,-1.65377 -0.1118,-0.23774 -0.2551,-0.41133 -0.3397,-0.41133 -0.2254,0 -0.01,0.12782 0,0.83861 0.01,0.53906 -0.2848,0.87721 -0.8187,0.9462 -0.70370002,0.091 -1.16060002,-0.61882 -0.80330002,-1.12889 0.2502,-0.35716 0.73760002,-0.18342 0.58030002,0.20683 -0.11200002,0.27793 -0.10040002,0.31784 0.092,0.31784 0.2173,0 0.3786,-0.29905 0.373,-0.4919 -0.01,-0.23596 -0.2705,-0.45618 -0.4779,-0.51605 -0.38780002,-0.11203 -0.79860002,0.16459 -0.94680002,0.5177 -0.149,0.35523 -0.054,0.77965 0.21,1.0553 0.4596,0.48043 1.40500002,0.39368 1.74240002,0.0238 0.5161,-0.56567 0.092,-1.04091 0.83,-0.37727 0.3966,0.35659 0.7838,0.584 1.4963,0.87881 0.5583,0.231 0.9416,0.29101 2.1341,0.33411 1.7226,0.0623 2.9215,-0.10748 4.6930002,-0.66453 2.3312,-0.73303 4.8001,-1.60183 6.5559,-1.17158 0.3562,0.0872 0.6475,0.19515 0.6475,0.23971 0,0.0445 -0.3065,0.0811 -0.6811,0.0811 -0.5574,0 -0.7137,0.0326 -0.8606,0.17957 -0.4123,0.41227 0.2704,0.62947 0.2704,0.28715 0,-0.13602 0.093,-0.18014 0.4767,-0.22624 0.2622,-0.0316 0.6771,-0.058 0.922,-0.058 0.4178,-6.9e-4 0.4738,0.0286 0.9106,0.47596 1.0018,1.02599 0.8072,1.18796 1.1565,0.9591 0.3012,-0.19736 0.8934,-0.35426 1.0368,-0.27477 0.1324,0.0734 0.093,0.15096 0.1334,0.27203 0.1005,0.30257 0.5305,0.712 0.8236,0.83203 0.8036,0.32907 0.8967,-0.37217 0.4534,-0.84741 -0.3172,-0.34001 -0.7931,-0.52608 -1.2283,-0.65704 -0.2587,-0.0779 -0.7227,-0.72235 -0.6293,-0.8742 0.023,-0.0374 0.1748,-0.0681 0.3373,-0.0681 0.2113,0 0.3715,0.0794 0.5622,0.27862 0.5623,0.58733 2.0926,1.28042 3.2982,1.49374 1.5201,0.26901 1.8425,0.20842 5.5957,-1.05156 2.8561,-0.95881 3.4928,-1.1491 4.2478,-1.26951 0.971,-0.15489 1.9823,-0.0729 2.6086,0.21146 0.5874,0.26675 1.6696,1.14961 1.8369,1.49858 0.064,0.13422 0.194,0.25887 0.2881,0.27701 0.2771,0.0534 0.02,-0.0763 0.026,-0.84161 0.01,-0.69437 1.0078,-1.52136 1.5661,-0.81152 0.2269,0.28837 0.2423,0.64022 0.038,0.86601 -0.3202,0.35383 -0.8353,0.0932 -0.5905,-0.29879 0.1523,-0.24384 0.1297,-0.35245 -0.073,-0.35245 -0.3539,0 -0.4978,0.67024 -0.2015,0.93836 0.5111,0.46256 1.1828,0.15323 1.2554,-0.57813 0.051,-0.51462 -0.1033,-0.81439 -0.5256,-1.02135 z m -22.1266,-1.03922004 c -0.3744,-0.24278 -0.5153,-0.56999 -0.2455,-0.56999 0.1499,0 0.863,0.60912 0.863,0.73707004 0,0.14605 -0.231,0.0836 -0.6175,-0.16708004 z m 2.9969,3.09072004 c 0.4682,0.19565 0.7921,0.75597 0.7082,0.75597 0,0.2371 -0.2829,0.12138 -0.7333,-0.29988 -0.4997,-0.46737 -0.4885,-0.67066 0.025,-0.45609 z m -2.1741,-0.30583 c -0.2399,-0.37887 -0.9611,-0.96057 -1.5661,-1.26314 -2.5029,-1.2516 -5.866,0.46507 -8.6768002,1.16998 -0.9034,0.22653 -2.9828,0.52758 -0.8118,-0.0361 2.9830002,-0.77461 5.7755002,-2.25141 8.2483002,-1.73887 0.786,0.16291 1.7175,0.57037 2.2927,1.00284 0.345,0.25937 0.9441,0.94709 0.9441,1.08372 0,0.16523 -0.2762,0.0251 -0.4304,-0.21842 z m 1.1099,-0.17387 c -0.01,0 -0.1616,0.36127 -0.7703,-0.36583 l -0.3802,-0.45406 c 0.2072,0.002 0.5821,-0.0144 0.7447,0.11643 0.2166,0.1743 0.4658,0.60635 0.4058,0.70346 z m -0.2891,-1.29663 c -0.3199,-0.35126 -0.4087,-0.58651 -0.2451,-0.6493 0.078,-0.0299 0.179,-0.0545 0.2242,-0.0545 0.093,0 0.5386,0.6741 0.5386,0.8155 0,0.16747 -0.3278,0.0967 -0.5177,-0.1117 z m 13.0952,-0.39413 c -1.8153,0.44295 -5.0617,1.50054 -6.4306,1.81741 0,0.0635 -2.0959,0.25932 -2.9684,0.0105 -0.688,-0.1962 -1.3623,-0.49428 -1.8012,-0.79623 -0.5322,-0.36613 -1.4313,-1.28177 -1.494,-1.52135 -0.076,-0.29106004 0.077,-0.21457 0.4043,0.20214 1.0709,1.363 2.5043,2.06738 4.204,2.06592 2.0474,-0.002 6.0451,-1.78628 8.3209,-1.95119 0.9003,-0.0653 0.9722,-0.12174 -0.235,0.1728 z"
       id="path1" />
  </g>
</svg>
