<svg
   width="85.6203mm"
   height="3.5754466mm"
   viewBox="0 0 85.620299 3.5754466"
   version="1.1"
   id="svg1"
   xmlns="http://www.w3.org/2000/svg"
   xmlns:svg="http://www.w3.org/2000/svg">
  <defs
     id="defs1" />
  <path
     d="M 85.4484,1.7449819 H 56.4945 c -0.1459,-0.32392 -0.6061,-0.32456 -0.7523,0 -1.235,0 -1.1379,-7.5e-4 -1.1632,0.003 -0.1554,-0.44848 -0.7866,-0.45883 -0.9567,-0.0157 -1.3758,0.10852 -2.4458,-0.38924 -3.2698,-1.37474004 -0.042,-0.05 -0.1217,-0.0105 -0.107,0.053 0.2403,1.03773004 0.1877,1.82165004 -0.4338,2.20095804 -1.6547,1.00981 -2.6848,1.00128 -6.4775,-0.320488 -0.1021,-0.0356 -0.1182,-0.17113 -0.029,-0.23226 0.2287,-0.15667 0.5818,-0.26824 0.9706,-0.36683 0.036,-0.009 0.074,-0.004 0.105,0.0164 1.3744,0.846918 2.8557,1.264788 4.2402,0.53792 0.8891,-0.46675 0.6969,-1.39366004 -0.2976,-1.82664004 -1.0858,-0.47273 -3.1866,0.13516 -5.1552,0.75771004 -3.1455,-1.47987004 -5.7444,-1.58301004 -7.7553,-0.20496004 -0.1307,0.0896 -0.2739,0.15886004 -0.425,0.20649004 -0.8725,0.27512 -1.8801,0.47126 -2.9728,0.61761 -0.053,-0.22434 -0.2546,-0.39139 -0.4953,-0.39139 -0.223,0 -0.4121,0.14349 -0.4813,0.34298 -0.025,-0.004 0.076,-0.003 -1.1632,-0.003 -0.1459,-0.32403 -0.6061,-0.32451 -0.7523,0 H 0.1691 c -0.093,1e-5 -0.1691,0.0757 -0.1691,0.16915 0,0.0934 0.076,0.16913 0.1691,0.16913 H 29.123 c 0.1459,0.32393 0.6062,0.32456 0.7524,0 1.2349,0 1.1378,7.4e-4 1.1632,-0.003 0.069,0.1995 0.2582,0.34297 0.4812,0.34297 0.2412,0 0.4427,-0.16773 0.4956,-0.39276 1.3797,0.003 2.5005,0.38766 3.3647,1.152038 0.047,0.0419 0.1196,-0.006 0.098,-0.0655 -0.3345,-0.897898 -0.4219,-1.713128 0.2487,-2.13027804 1.7184,-1.06894 4.133,-0.93242 7.1298,0.31732004 0.028,0.0118 0.027,0.0525 0,0.0619 -1.0818,0.3525 -1.0772,0.36636 -1.2515,0.36062 -1.6308,-1.34992004 -4.9605,-1.14476004 -4.8404,0.31545 0.036,0.44331 0.2977,0.786758 0.9262,0.947218 1.6276,0.41552 3.177,0.10507 4.8929,-0.578438 0.1334,-0.0532 0.2825,-0.051 0.4142,0.006 2.865,1.251378 5.1213,1.600868 6.9517,0.490758 1.063,-0.644698 2.3167,-0.861638 3.6754,-0.811958 0.1702,0.442858 0.8012,0.432618 0.9566,-0.0158 0.025,0.004 -0.076,0.003 1.1632,0.003 0.1459,0.32391 0.6061,0.32457 0.7523,0 h 28.9539 c 0.093,0 0.1692,-0.0757 0.1692,-0.16914 0,-0.0934 -0.076,-0.16912 -0.1692,-0.16912 z M 48.0957,0.85436186 c 0.2256,0.017 0.4447,0.10261 0.6066,0.26060004 0.2452,0.23927 0.225,0.50565 0,0.79347 -0.1233,0.15429 -0.2942,0.26445 -0.4834,0.32125 -1.0578,0.317578 -2.3344,-0.0373 -3.6837,-0.61551 1.1661,-0.60181 2.3549,-0.85089004 3.5655,-0.75981004 z M 37.368,2.4801319 c -0.5007,-0.25708 -0.406,-1.00577 0.3428,-1.20422 1.2354,-0.32746004 2.6068,-0.0914 3.7164,0.50965 -1.4492,0.58249 -3.0437,1.216088 -4.0592,0.69457 z"
     id="path1" />
</svg>
