<svg
   width="61.945358mm"
   height="6.7583132mm"
   viewBox="0 0 61.945357 6.7583132"
   version="1.1"
   id="svg1"
   xmlns="http://www.w3.org/2000/svg"
   xmlns:svg="http://www.w3.org/2000/svg">
  <path
     id="path16"
     d="M 15.768972,0.84299899 C 17.38272,1.3809072 19.70509,2.6636356 21.355062,3.6412105 21.241262,3.4808786 21.14815,3.3257006 21.070574,3.1705227 20.972308,2.9584567 20.894707,2.7515689 20.848175,2.5343247 20.791263,2.3067481 20.760242,2.0688151 20.76542,1.825728 20.77578,1.6084838 20.81198,1.3912637 20.884399,1.18953 c 0.08793,-0.2172443 0.217244,-0.41895383 0.393111,-0.58964229 0.16551,-0.16033197 0.372398,-0.28964287 0.610331,-0.37757622 0.232754,-0.0879334 0.501709,-0.12931091 0.76033,-0.13448915 0.268954,0 0.532755,0.03619931 0.749975,0.11380037 0.196555,0.0723986 0.356887,0.1758667 0.475841,0.28446463 0.155178,0.14999969 0.243112,0.3155099 0.263801,0.45517729 0.01551,0.0931116 0,0.17586677 -0.03105,0.24308707 -0.03104,0.067245 -0.07758,0.1138004 -0.134465,0.1499997 -0.06207,0.031045 -0.129311,0.046556 -0.201709,0.036199 -0.07242,-0.010332 -0.144818,-0.041377 -0.206884,-0.1034436 -0.144821,-0.1293109 -0.243111,-0.39826498 -0.336223,-0.68275382 -0.160332,-0.051734 -0.36722,-0.0775769 -0.574132,-0.0775769 -0.212066,0.005178 -0.434488,0.0413775 -0.620663,0.10862213 -0.181045,0.0672446 -0.336223,0.16551021 -0.465534,0.28446463 -0.129286,0.12413276 -0.227576,0.27413236 -0.289643,0.43964266 -0.05691,0.1551779 -0.08793,0.3258663 -0.09311,0.4965548 -0.0052,0.2017095 0.02069,0.4034433 0.07242,0.6051528 0.04138,0.186199 0.103444,0.3672197 0.191377,0.5430864 0.08793,0.1810208 0.206888,0.3620657 0.351709,0.5586212 1.22584,1.6034165 3.941297,2.4413241 5.875758,2.1103037 C 29.154925,5.404959 30.375563,4.4015171 30.261787,2.834324 30.18421,1.6809066 28.979058,1.4688406 28.203217,1.6343508 28.07906,1.9033049 27.929085,2.2446818 27.665285,2.3946815 27.246331,2.6326145 26.770489,2.3481257 26.910132,1.9291719 27.127376,1.2774633 28.229084,0.99299867 29.010103,1.0912643 31.316963,1.3757532 31.04283,3.7550109 30.137678,4.8928937 28.472195,6.9928408 24.753297,6.2118455 22.679217,5.3894243 19.606873,4.163584 14.791445,1.008485 11.677724,1.0912401 10.767393,1.1119289 10.100174,1.3136384 9.4381089,1.7998368 6.8985192,3.6722074 8.320915,6.4755972 10.451883,6.2118213 10.907036,6.1600873 11.305301,5.9325107 11.646678,5.699756 11.579458,5.2704457 11.512189,4.7997821 11.822545,4.6135589 12.448387,4.2411609 13.425962,5.4980222 11.346703,6.4859295 8.9364,7.6290147 6.4278314,4.960114 8.0829819,2.4618777 9.6966823,0.0257802 13.291424,0.01544791 15.768972,0.84299899 Z m 30.407396,0 C 44.562619,1.3809072 42.24025,2.6636356 40.590277,3.6412105 40.704078,3.4808786 40.797189,3.3257006 40.874766,3.1705227 40.973032,2.9584567 41.050633,2.7515689 41.097164,2.5343247 41.154077,2.3067481 41.185098,2.0688151 41.17992,1.825728 41.169563,1.6084838 41.133364,1.3912637 41.060941,1.18953 40.973008,0.9722857 40.843697,0.77057617 40.66783,0.59988771 40.50232,0.43955574 40.295432,0.31024484 40.057499,0.22231149 39.824744,0.13437813 39.55579,0.09300058 39.297168,0.08782234 c -0.268954,0 -0.532754,0.03619931 -0.749974,0.11380037 -0.196555,0.0723986 -0.356887,0.1758667 -0.475842,0.28446463 -0.155178,0.14999969 -0.243111,0.3155099 -0.2638,0.45517729 -0.01551,0.0931116 0,0.17586677 0.03104,0.24308707 0.03105,0.067245 0.07758,0.1138004 0.134465,0.1499997 0.06207,0.031045 0.129311,0.046556 0.201734,0.036199 0.07242,-0.010332 0.144822,-0.041377 0.206888,-0.1034439 0.144821,-0.1293109 0.243111,-0.39826498 0.336223,-0.68275382 0.160332,-0.051734 0.367219,-0.0775769 0.574131,-0.0775769 0.212066,0.005178 0.434489,0.0413775 0.620664,0.10862213 0.181045,0.0672446 0.336223,0.16551021 0.465534,0.28446463 0.12931,0.12413276 0.227576,0.27413236 0.289642,0.43964266 0.05691,0.1551779 0.08793,0.3258663 0.09311,0.4965548 0.0052,0.2017095 -0.02069,0.4034433 -0.07242,0.6051528 -0.04138,0.186199 -0.103444,0.3672197 -0.191377,0.5430864 C 40.409256,3.16532 40.290298,3.3463649 40.145477,3.5429204 38.91964,5.1463372 36.204184,5.9842448 34.269723,5.6532244 32.790439,5.404959 31.569801,4.4015171 31.683577,2.834324 c 0.07758,-1.1534174 1.282729,-1.3654834 2.05857,-1.1999732 0.124157,0.2689541 0.274156,0.610331 0.537932,0.7603307 0.418954,0.237933 0.894796,-0.046556 0.755153,-0.4655096 C 34.817988,1.2774633 33.716304,0.99299867 32.93526,1.0912643 30.628401,1.3757532 30.902534,3.7550109 31.807686,4.8928937 33.473169,6.9928408 37.192067,6.2118455 39.266147,5.3894243 42.338491,4.163584 47.153919,1.008485 50.26764,1.0912401 c 0.910331,0.020689 1.57755,0.2223983 2.239615,0.7085967 2.53959,1.8723706 1.117218,4.6757604 -1.013774,4.4119845 C 51.038327,6.1600873 50.640062,5.9325107 50.298686,5.699756 50.365906,5.2704457 50.433175,4.7997821 50.122819,4.6135589 49.496977,4.2411609 48.519402,5.4980222 50.598661,6.4859295 53.008964,7.6290147 55.517532,4.960114 53.862382,2.4618777 52.248657,0.0257802 48.653916,0.01544791 46.176368,0.84299899 Z M 9.6915041,1.8153957 c 0.1551779,-0.098266 0.3103319,-0.186199 0.4655099,-0.2586218 0.899974,0.398265 1.789615,0.8120406 2.591324,1.1430852 l 3.108543,1.1534175 c 0.568953,0.1965554 1.712038,0.4965548 1.717192,0.8689528 0.0052,0.424132 -0.81204,0.2586218 -0.822397,-0.062066 V 4.6136073 L 14.294866,3.7550109 C 12.965582,3.2688126 11.651832,2.6998591 10.343213,2.1102169 10.125993,2.0119512 9.9087241,1.9136856 9.6915041,1.8153957 Z m 42.5623309,0 C 52.098658,1.7171301 51.943504,1.6291967 51.788326,1.5567739 50.888352,1.9550389 49.99871,2.3688145 49.197002,2.6998591 l -3.108567,1.1534175 c -0.568954,0.1965554 -1.712039,0.4965548 -1.717217,0.8689528 -0.0052,0.424132 0.81204,0.2586218 0.822397,-0.062066 V 4.6136073 L 47.65045,3.7550109 c 1.329284,-0.4861983 2.643033,-1.0551518 3.951653,-1.644794 0.217244,-0.098266 0.434512,-0.1965313 0.651732,-0.2948212 z M 6.055385,0.12922409 C 7.0226035,0.29991255 8.0984441,0.68784526 9.184617,1.1429984 9.050152,1.2309317 8.9259951,1.3240191 8.8018625,1.427463 7.2088025,0.76542213 5.5898512,0.26886728 3.8209245,0.46024452 -0.45139266,0.9257541 -0.00654766,4.5825862 1.4106457,5.3015393 2.1864869,5.6946503 4.0537035,5.5549829 4.2243919,3.9515664 4.276126,3.4601898 4.1519933,2.9119251 3.8261269,2.5550377 3.6399037,2.3533281 3.696816,2.3895274 3.4640612,2.4671043 3.1950829,2.5653941 2.9106183,2.6274605 2.6726853,2.4774608 2.057176,2.084374 2.9726846,1.3550644 3.908882,2.0688393 5.2691873,3.1033023 4.865744,6.0773806 2.0727107,5.8963356 0.01411692,5.7618707 -0.59103586,3.0929701 0.61929389,1.5412634 1.7882219,0.04646898 4.2140354,-0.20179634 6.055385,0.12922409 Z m 49.83457,0 c -0.967219,0.17068846 -2.043059,0.55862117 -3.129232,1.01377431 0.134489,0.087933 0.258621,0.1810207 0.382754,0.2844646 1.59306,-0.66204087 3.212011,-1.15859572 4.980938,-0.96721848 4.272317,0.46550958 3.827496,4.12231748 2.410303,4.84127058 -0.775841,0.393111 -2.643058,0.2534436 -2.813746,-1.3499729 -0.05173,-0.4913766 0.0724,-1.0396413 0.398265,-1.3965287 0.186223,-0.2017096 0.129311,-0.1655103 0.362066,-0.087933 0.268954,0.09829 0.553442,0.1603562 0.791376,0.010356 0.615509,-0.3930868 -0.3,-1.1223964 -1.236197,-0.4086215 C 56.676177,3.103278 57.07962,6.0773563 59.872653,5.8963113 61.931223,5.7618465 62.5364,3.0929217 61.32607,1.5412392 60.157118,0.04646898 57.731304,-0.20179634 55.889955,0.12922409 Z" />
</svg>
