<svg
   width="80.436775mm"
   height="6.7147551mm"
   viewBox="0 0 80.436774 6.714755"
   version="1.1"
   id="svg1"
   xmlns="http://www.w3.org/2000/svg"
   xmlns:svg="http://www.w3.org/2000/svg">
  <path
     id="rect59119"
     d="m 16.472535,3.415262e-6 c -0.210017,0 -0.41125,0.00773454474 -0.59576,0.019336354738 -1.319843,0.08369877 -2.128662,0.28352613 -3.226086,0.79726532 -0.244722,0.11452644 -0.480361,0.20828011 -0.523643,0.20828011 -0.04328,0 -0.235727,-0.0408826 -0.42773,-0.0912123 C 10.356035,0.56385138 9.0488574,0.4870032 7.7623138,0.48821863 6.4801327,0.48103655 5.3371866,0.61158454 4.1938014,0.93831361 3.4574463,1.1516764 2.5699265,1.5444806 2.0429529,1.890325 1.1425426,2.4812991 0.44764186,3.2992819 0.14884804,4.1200271 0.01006919,4.6413351 -0.08614907,5.3513106 0.11506074,5.8178139 0.30387047,6.2488487 0.60148102,6.5294468 0.9985517,6.6508791 1.6394783,6.8469497 2.391675,6.5104419 2.6322634,6.0937712 2.8728518,5.6771005 2.8028992,5.3310351 2.7696366,5.1794933 2.6031265,4.4209007 1.838045,4.4788545 1.5148531,4.9325405 1.3311984,5.1903217 1.2766283,5.6106939 1.637203,5.8493598 c 0.081811,0.054142 0.1493485,0.1094989 0.1502267,0.1230344 0.00331,0.054694 -0.3437495,0.179828 -0.4975031,0.179828 -0.2134645,0 -0.35461846,-0.072815 -0.4813679,-0.2482787 C 0.49964295,5.4763892 0.52499341,4.6552573 0.87000027,3.9147303 1.101861,3.4171232 1.6602782,2.7625601 2.1809192,2.3781535 4.0296749,1.1905149 6.3901586,0.62418079 8.693241,0.83229516 c 0.8641595,0.0780636 1.936395,0.16187287 3.025478,0.51578334 0,0.00994 -0.113751,0.1363489 -0.252729,0.2801561 -1.028084,1.0636097 -1.139377,2.1921896 -0.301517,3.0566902 0.551528,0.5690411 1.543658,0.9584752 2.823355,1.1083043 0.27041,0.031491 1.788478,0.022099 2.158276,-0.014364 0.858857,-0.083312 2.164911,-0.3189945 2.906841,-0.5781016 0.335275,-0.1170678 0.580437,-0.1722592 0.892201,-0.2714271 l 0.475007,-0.1516522 0.798412,0.2578917 c 1.126201,0.3637443 2.086134,0.6103657 3.067528,0.8362142 0.409323,0.094251 0.836608,0.1788336 1.306143,0.2486102 0.799049,0.1188357 1.524857,0.2132523 2.245775,0.2508201 0.836893,0.043645 0.862264,0.043645 1.606908,0.00552 1.110139,-0.059998 2.045192,-0.2208211 2.860327,-0.491751 0.369334,-0.1411001 0.255541,-0.074473 0.650002,-0.2340251 0.641395,-0.2594938 0.565032,-0.2589966 1.290316,-0.1803253 0.509672,0.055247 0.919879,0.070108 1.90971,0.069114 1.211456,0 1.510734,-0.054694 1.881226,-0.1070129 0.556353,-0.05138 0.952956,-0.1839163 1.396453,-0.3046304 0.912428,-0.248334 1.877984,-0.6959981 2.540623,-1.1779152 C 42.919766,3.1589553 43.698639,2.0244088 43.015554,1.027979 42.827576,0.75831981 42.551265,0.55771899 42.239791,0.46484927 42.09744,0.4223093 41.979102,0.4003211 41.868271,0.39833222 41.757448,0.39280755 41.654148,0.41435377 41.542059,0.452474 41.276326,0.54219467 41.1227,0.65898622 41.02054,0.84897967 40.900192,1.0726184 40.89973,1.2865336 41.018829,1.5319948 41.1743,1.851818 41.415806,1.956621 41.871863,1.9020373 c 0.245775,-0.029281 0.429022,-0.1340285 0.558569,-0.318884 0.04978,-0.070992 0.106916,-0.1346915 0.126966,-0.1415421 0.05486,-0.018784 0.04269,0.4241842 -0.01939,0.7046718 -0.176732,0.798757 -1.010329,1.5976797 -2.274946,2.1804221 -0.700153,0.2871724 -1.366815,0.5424675 -2.087514,0.6591485 -0.836074,0.1355202 -2.548084,0.2859018 -3.491771,0.205573 -0.286542,-0.024309 -0.535473,-0.053037 -0.553111,-0.063368 -0.01762,-0.010497 0.111031,-0.1223715 0.285915,-0.248776 0.47256,-0.3415904 0.704279,-0.5566659 0.982734,-0.912068 0.419026,-0.6045095 0.633271,-1.176092 0.58758,-1.6930355 C 35.916373,1.4750354 35.397939,0.85312317 34.506582,0.49854976 34.042675,0.31927418 33.610414,0.24772968 33.123766,0.20170917 c -0.115881,-0.009944 -0.252142,-0.0160215 -0.401365,-0.017679 -0.447677,-0.005525 -1.012091,0.0254135 -1.493419,0.0844722 -0.496639,0.0612134 -1.511704,0.2681123 -2.016991,0.41103555 -0.477196,0.13507821 -1.277314,0.38114708 -1.435159,0.44142118 -0.07466,0.028728 -0.310304,0.1128691 -0.523643,0.1874521 -0.535462,0.1870654 -1.194839,0.4534651 -2.029559,0.820027 -0.156226,0.068561 -0.29858,0.1246366 -0.316366,0.1246366 -0.01779,0 -0.151821,-0.051379 -0.297808,-0.1148579 C 24.02564,1.885408 23.546131,1.6803322 23.128081,1.5055869 l -0.0017,0.00552 -2.85e-4,-0.00552 C 21.829388,0.9636166 21.176558,0.73826525 20.260309,0.48578777 19.47666,0.29435791 19.203473,0.23690132 18.389986,0.1188391 17.812731,0.03508508 17.102294,-0.00104627 16.472247,0.00293149 Z M 16.12693,0.41579018 c 0.404766,-0.0204413 0.816273,-0.0182314 1.225538,0.007735 2.488479,0.18308761 4.118299,0.70980982 5.812545,1.40707862 0.136567,0.056186 0.490963,0.2164566 0.787581,0.356286 l 0.539322,0.2542454 -0.723262,0.3273368 c -0.860929,0.3762301 -1.638216,0.7252236 -3.186844,1.3849799 -0.14595,0.053037 -0.252139,0.054694 -0.371515,0.090549 -0.09815,-0.018784 -0.175777,-0.031491 -0.239396,-0.054694 C 19.762968,4.1136185 18.963775,3.7777737 17.614515,3.1992301 16.553984,2.7444392 14.701964,1.9928629 12.987131,1.3213391 l -0.224849,-0.088063 0.14727,-0.073091 C 13.75907,0.73821001 14.91262,0.47672731 16.12693,0.41595592 Z m 16.431114,0.19861194 c 0.67787,-0.0187839 1.268161,0.025966 1.658951,0.11148787 0.683983,0.18430304 1.21415,0.66947971 1.322432,1.21045551 0.119995,0.4099859 -0.0144,0.9776458 -0.222272,1.3563068 C 35.034693,3.7777185 34.757877,4.0313561 34.432449,4.3167607 33.846572,4.8305551 33.527146,5.0749666 32.718116,4.945192 30.617632,4.5928837 28.495857,3.9034047 25.974278,2.7539969 L 25.626092,2.5952731 25.877307,2.4737303 c 0.99932,-0.4835745 3.224831,-1.2701772 4.45973,-1.57635451 0.707199,-0.17535307 1.504191,-0.26297436 2.221007,-0.28297367 z m -9.416439,0.87494218 -0.01523,0.013259 h 0.002 z m -10.79024,0.03812 c 0.08278,0.022651 0.185012,0.058838 0.744328,0.2632506 0.381539,0.1393874 1.743119,0.6734022 1.989031,0.7799731 0.11263,0.048617 0.21168,0.088837 0.220151,0.088837 0.0085,0 0.147669,0.058451 0.30932,0.1299403 0.161652,0.071544 0.301526,0.130106 0.310838,0.130106 0.03259,0 2.680938,1.1153759 3.241009,1.3650358 0.160001,0.071324 0.332604,0.1449121 0.383565,0.1636407 0.05096,0.018784 0.08587,0.04033 0.07758,0.048065 -0.0083,0.00773 -0.189622,0.080439 -0.402958,0.1613204 -1.11688,0.4233003 -2.484334,0.7141743 -3.871244,0.823618 C 14.03425,5.5852252 12.733647,5.3735751 11.949698,4.9274578 11.634367,4.7480165 11.298128,4.408194 11.150145,4.1193642 10.982643,3.672142 10.98367,3.1282933 11.163774,2.7618971 c 0.184716,-0.373523 0.45088,-0.7077656 0.79508,-0.9982528 0.243448,-0.2055178 0.325302,-0.2547426 0.392503,-0.2362902 z m 12.853814,1.2689065 c 0.104732,-0.00552 0.326274,0.094914 1.371072,0.5526881 0.16095,0.07055 0.304473,0.1281724 0.318944,0.1281724 0.01445,0 0.11848,0.04033 0.231059,0.089942 1.054364,0.463078 2.844184,1.0822279 3.812001,1.3186839 0.390991,0.095466 1.532615,0.3377784 1.591678,0.3377784 0.01,0 0.01802,0.013259 0.01802,0.028728 0,0.09414 -1.392111,0.4965022 -2.075168,0.5998135 -2.517237,0.1915956 -4.368664,0.013259 -6.59452,-0.42772 -0.984679,-0.2409309 -2.23573,-0.6134595 -2.669645,-0.794945 l -0.161363,-0.067401 0.193942,-0.082704 c 0.106665,-0.045302 0.42085,-0.1788889 0.698188,-0.2965644 0.277335,-0.1176755 0.480338,-0.2148544 0.53985,-0.2414281 l 0.192881,-0.087953 0.01668,0.00552 L 23.051075,3.7086 c 0.429766,-0.1783364 1.8782,-0.7966576 2.062137,-0.8803011 0.03511,-0.016022 0.05706,-0.029281 0.09197,-0.031491 z" />
  <path
     id="rect59119-3"
     d="m 63.964238,3.415262e-6 c 0.210015,0 0.411247,0.00773454474 0.595757,0.019336354738 1.319847,0.08369877 2.128666,0.28352613 3.226089,0.79726532 0.244723,0.11452644 0.480359,0.20828011 0.523641,0.20828011 0.04328,0 0.235727,-0.0408826 0.427733,-0.0912123 1.34328,-0.3698215 2.650458,-0.44666968 3.936999,-0.44545425 1.282181,-0.007182 2.42513,0.12336591 3.568512,0.45009498 0.736355,0.21336277 1.623875,0.60616697 2.150849,0.95201137 0.90041,0.5909741 1.595311,1.4089569 1.894105,2.2297021 0.138779,0.521308 0.234997,1.2312835 0.03379,1.6977868 C 80.1329,6.2488487 79.835293,6.5294468 79.438219,6.6508791 78.797292,6.8469497 77.929572,6.5880631 77.6701,5.9237771 77.59672,5.735883 77.62403,5.3270021 77.6671,5.1794933 c 0.196383,-0.6074928 0.931592,-0.7006388 1.254784,-0.2469528 0.183652,0.2577812 0.238222,0.6781534 -0.12235,0.9168193 -0.08181,0.054142 -0.149349,0.1094989 -0.150227,0.1230344 -0.0033,0.054694 0.34375,0.179828 0.497503,0.179828 0.213462,0 0.354616,-0.072815 0.481368,-0.2482787 C 79.937125,5.4763892 79.911777,4.6552573 79.566771,3.9147303 79.334907,3.4171232 78.77649,2.7625601 78.255849,2.3781535 76.407093,1.1905149 74.046609,0.62418079 71.74353,0.83229516 c -0.86416,0.0780636 -1.936398,0.16187287 -3.025481,0.51578334 0,0.00994 0.113754,0.1363489 0.252729,0.2801561 1.028084,1.0636097 1.139379,2.1921896 0.30152,3.0566902 C 68.720766,5.2539659 67.72864,5.6434 66.448939,5.7932291 66.178533,5.8247197 64.660465,5.8153278 64.290663,5.7788649 63.431807,5.6955529 62.125753,5.4598704 61.383823,5.2007633 61.048551,5.0836955 60.803386,5.0285041 60.491622,4.9293362 L 60.016618,4.777684 59.218203,5.0355757 c -1.126201,0.3637443 -2.086131,0.6103657 -3.067526,0.8362142 -0.409322,0.094251 -0.836607,0.1788336 -1.306145,0.2486102 -0.799049,0.1188357 -1.524857,0.2132523 -2.245776,0.2508201 -0.83689,0.043645 -0.862263,0.043645 -1.606907,0.00552 C 49.88171,6.316747 48.94666,6.1559238 48.131525,5.8849939 47.762191,5.7438938 47.875981,5.8105213 47.48152,5.6509688 46.840125,5.391475 46.91649,5.3919722 46.191207,5.4706435 c -0.509673,0.055247 -0.919882,0.070108 -1.90971,0.069114 -1.211456,0 -1.510737,-0.054694 -1.881229,-0.1070129 C 41.843918,5.3813648 41.447315,5.248828 41.003818,5.1281139 40.091386,4.8797799 39.125831,4.4321158 38.463192,3.9501987 37.517005,3.1589553 36.738129,2.0244088 37.421214,1.027979 c 0.18798,-0.26965919 0.464289,-0.47026001 0.775765,-0.56312973 0.142352,-0.04254 0.26069,-0.0645282 0.371518,-0.066517 0.110823,-0.005525 0.214123,0.0160215 0.326214,0.0541418 0.265731,0.0897207 0.419356,0.20651222 0.52152,0.39650567 0.120348,0.22363876 0.12081,0.43755396 0.0017,0.68301516 C 39.262468,1.851818 39.020965,1.956621 38.564905,1.9020373 38.31913,1.8727565 38.135883,1.7680088 38.006339,1.5831533 37.956553,1.5121612 37.899423,1.4484618 37.87937,1.4416112 c -0.05486,-0.018784 -0.04268,0.4241842 0.01939,0.7046718 0.176731,0.798757 1.010328,1.5976797 2.274943,2.1804221 0.700153,0.2871724 1.366815,0.5424675 2.087517,0.6591485 0.836071,0.1355202 2.548081,0.2859018 3.491768,0.205573 0.286545,-0.024309 0.535473,-0.053037 0.553111,-0.063368 0.01762,-0.010497 -0.111031,-0.1223715 -0.285912,-0.248776 C 45.547627,4.5376922 45.315905,4.3226167 45.037452,3.9672146 44.618424,3.3627051 44.404179,2.7911226 44.449873,2.2741791 44.520393,1.4750353 45.03883,0.85312307 45.930187,0.49854966 46.394094,0.31927408 46.826355,0.24772958 47.313,0.20170907 c 0.115881,-0.009944 0.252142,-0.0160215 0.401365,-0.017679 0.44768,-0.005525 1.012094,0.0254135 1.493422,0.0844722 0.496639,0.0612134 1.511701,0.2681123 2.016988,0.41103555 0.477196,0.13507821 1.277317,0.38114708 1.435162,0.44142118 0.07466,0.028728 0.310304,0.1128691 0.52364,0.1874521 0.535462,0.1870654 1.194839,0.4534651 2.029559,0.820027 0.156229,0.068561 0.29858,0.1246366 0.316366,0.1246366 0.01779,0 0.151821,-0.051379 0.297808,-0.1148579 0.583816,-0.252809 1.063325,-0.4578848 1.481375,-0.6326301 l 0.0017,0.00552 2.85e-4,-0.00552 c 1.296697,-0.54197028 1.949527,-0.76732163 2.865779,-1.01979911 0.783649,-0.19142986 1.056836,-0.24888645 1.87032,-0.36694867 0.577255,-0.08375402 1.287692,-0.11988537 1.917739,-0.11590761 z M 64.309844,0.41579018 c -0.404766,-0.0204413 -0.816276,-0.0182314 -1.225538,0.007735 -2.488482,0.18308761 -4.118299,0.70980982 -5.812546,1.40707862 -0.136566,0.056186 -0.490962,0.2164566 -0.78758,0.356286 l -0.539323,0.2542454 0.723262,0.3273368 c 0.860927,0.3762301 1.638217,0.7252236 3.186845,1.3849799 0.145946,0.053037 0.252136,0.054694 0.371514,0.090549 0.09814,-0.018784 0.175774,-0.031491 0.239397,-0.054694 0.207927,-0.075688 1.007121,-0.4115328 2.356384,-0.9900764 1.06053,-0.4547909 2.912548,-1.2063672 4.627381,-1.877891 l 0.224852,-0.088063 -0.147273,-0.073091 C 66.677701,0.73821001 65.524151,0.47672731 64.309844,0.41595592 Z M 47.87873,0.61440212 c -0.677873,-0.0187839 -1.268162,0.025966 -1.658951,0.11148787 -0.683983,0.18430304 -1.21415,0.66947971 -1.322435,1.21045551 -0.119995,0.4099859 0.0144,0.9776458 0.222272,1.3563068 0.282465,0.4850662 0.559281,0.7387038 0.884708,1.0241084 0.585878,0.5137944 0.905301,0.7582059 1.714331,0.6284313 2.100484,-0.3523083 4.222261,-1.0417873 6.743841,-2.1911951 L 54.810679,2.5952731 54.559467,2.4737303 C 53.560146,1.9901558 51.334632,1.2035531 50.099733,0.89737579 49.392535,0.72202272 48.595543,0.63440143 47.87873,0.61440212 Z m 9.416436,0.87494218 0.01523,0.013259 h -0.002 z m 10.790239,0.03812 c -0.08278,0.022651 -0.185009,0.058838 -0.744324,0.2632506 -0.38154,0.1393874 -1.743123,0.6734022 -1.989031,0.7799731 -0.112633,0.048617 -0.21168,0.088837 -0.220154,0.088837 -0.0085,0 -0.147669,0.058451 -0.309321,0.1299403 -0.161648,0.071544 -0.301525,0.130106 -0.310837,0.130106 -0.03259,0 -2.680939,1.1153759 -3.241007,1.3650358 -0.16,0.071324 -0.332606,0.1449121 -0.383564,0.1636407 -0.05096,0.018784 -0.08587,0.04033 -0.07758,0.048065 0.0083,0.00773 0.189623,0.080439 0.402962,0.1613204 1.116877,0.4233003 2.484333,0.7141743 3.871241,0.823618 1.318731,0.1039743 2.619337,-0.1076758 3.403285,-0.5537931 C 68.802406,4.7480165 69.138643,4.408194 69.286625,4.1193642 69.454131,3.672142 69.453104,3.1282933 69.272996,2.7618971 69.088281,2.3883741 68.82212,2.0541315 68.477917,1.7636443 68.234469,1.5581265 68.152615,1.5089017 68.085414,1.5273541 Z M 55.231592,2.7963711 c -0.10473,-0.00552 -0.326275,0.094914 -1.371072,0.5526881 -0.160947,0.07055 -0.304474,0.1281724 -0.318941,0.1281724 -0.01446,0 -0.118484,0.04033 -0.231062,0.089942 -1.054364,0.463078 -2.844184,1.0822279 -3.812001,1.3186839 -0.390989,0.095466 -1.532612,0.3377784 -1.591678,0.3377784 -0.01,0 -0.01802,0.013259 -0.01802,0.028728 0,0.09414 1.392111,0.4965022 2.07517,0.5998135 2.517237,0.1915956 4.368665,0.013259 6.594518,-0.42772 0.984682,-0.2409309 2.235733,-0.6134595 2.669645,-0.794945 L 59.389517,4.5621113 59.195575,4.479407 C 59.08891,4.4341047 58.774725,4.3005181 58.497387,4.1828426 58.220052,4.0651671 58.017045,3.9679882 57.957534,3.9414145 l -0.192881,-0.087953 -0.01668,0.00552 -0.362277,-0.1503816 c -0.429769,-0.1783364 -1.878203,-0.7966576 -2.06214,-0.8803011 -0.03511,-0.016022 -0.05706,-0.029281 -0.09197,-0.031491 z" />
</svg>
