<svg
   width="85.99276mm"
   height="18.981186mm"
   viewBox="0 0 85.992758 18.981186"
   version="1.1"
   id="svg1"
   xmlns="http://www.w3.org/2000/svg"
   xmlns:svg="http://www.w3.org/2000/svg">
  <path
     d="m 85.249027,9.5110662 c -0.4071,-0.0181 -3.4476,-0.0313 -6.7567,-0.0293 -5.7295,0.003 -6.0493,-0.004 -6.7059,-0.17005 -0.8297,-0.20904 -1.0472,-0.21591 -1.3776,-0.0436 -0.2219,0.11572 -0.2697,0.11624 -0.3935,0.004 -0.5093,-0.46088 -1.5491,-0.62407 -1.9529,-0.30644 l -0.2275,0.17895 c -0.6337,-0.65393 -0.7622,-0.85007 -1.407,-1.05215 -1.3585,-0.42583 -3.0638,-0.0541 -3.9489,0.86087 -0.1893,0.19574 -0.3677,0.35589 -0.3964,0.35589 -0.085,0 -0.5904,-1.05886 -0.6863,-1.43698 -0.049,-0.1916 -0.1197,-0.63929 -0.158,-0.99485 -0.1264,-1.17178 -0.4617,-0.66972 -0.4617,0.19933 0,0.46946 -0.1404,0.89293 -0.3193,0.96263 -0.145,0.0565 -0.7179,-0.49396 -1.1867,-0.64368 -0.3298,-0.10532 -0.331,-0.10486 -0.6824,0.29438 -0.1936,0.21996 -0.4024,0.39992 -0.4641,0.39992 -0.098,0 -0.6054,-0.1962 -1.1359,-0.43953 -0.8913,-0.40888 -3.1236,-0.55691 -4.322,-0.28654 -0.7469,0.16848 -1.5712,0.62654 -2.1082,0.90499 -0.3197,-0.30382 -0.8719,-0.7567 -0.6205,-1.11565 0.1452,-0.20723 1.0714,-0.54382 1.4966,-0.54382 0.3381,0 0.8948,-0.21206 0.8948,-0.34087 0,-0.21267 -0.6006,-0.7413 -1.1652,-1.02563 -0.5528,-0.27841 -0.6659,-0.30483 -1.1395,-0.26637 -0.6396,0.0519 -1.3531,0.36424 -1.3531,0.59225 0,0.22698 0.1601,0.29612 0.3321,0.14338 0.081,-0.0718 0.2986,-0.19318 0.4841,-0.26978 0.4187,-0.17296 1.2396,-0.0675 1.8134,0.233 0.5451,0.28544 0.4906,0.43185 -0.2078,0.55844 -0.5782,0.10486 -1.1052,0.32475 -1.5802,0.65956 -0.2188,0.15418 -0.2405,0.21023 -0.1892,0.48939 0.07,0.37837 0.5228,0.8698 0.7729,1.16818 -0.1865,0.16558 -0.9216,0.83909 -1.0436,0.84257 -0.1,0.003 -1.1655,-1.67181 -1.1655,-1.83114 0,-0.18009 -0.2866,-0.51752 -0.4396,-0.51752 -0.087,0 -0.248,0.12736 -0.3577,0.28303 -0.3262,0.46284 -1.567,1.84913 -1.6734,1.86978 -0.054,0.0104 -0.2705,-0.19652 -0.4807,-0.46 -0.2999,-0.37591 -0.3655,-0.51484 -0.3048,-0.64505 0.1201,-0.2575 0.7955,-0.9419 0.9906,-1.00383 0.2422,-0.0769 0.3331,-0.47366 0.1407,-0.61436 -0.4122,-0.30141 -0.5815,0.28134 -1.5429,1.39779 -0.3216,-0.44407 -0.3369,-0.48141 -0.8174,-0.95801 0.099,-0.11741 1.3499,-1.57383 1.3499,-1.69939 0,-0.13665 -0.9138,-1.03161 -0.8627,-1.07775 0.019,-0.0176 0.2004,-0.11508 0.402,-0.21678 0.6954,-0.35062 1.8726,-0.18406 1.9894,0.2815 0.074,0.29693 0.023,0.49883 -0.1546,0.61096 -0.2138,0.13464 -0.4038,-0.0549 -0.2459,-0.24518 0.169,-0.20357 0.045,-0.39669 -0.2545,-0.39669 -0.24,0 -0.264,0.0258 -0.264,0.28392 0,0.33353 0.3491,0.76116 0.6214,0.76116 0.098,0 0.2928,-0.0811 0.432,-0.18012 0.1939,-0.13807 0.2529,-0.24891 0.2529,-0.47489 0,-0.68698 -0.5022,-1.13802 -1.3679,-1.22851 -0.4662,-0.0487 -0.5903,-0.0271 -0.993,0.17364 -0.5729,0.28555 -0.7324,0.28726 -0.9141,0.0104 -0.1368,-0.20876 -0.1324,-0.24482 0.091,-0.74155 0.3158,-0.70357 0.3412,-1.77614003 0.055,-2.33624003 -0.1036,-0.20298 -0.2478,-0.39191 -0.3205,-0.41982 -0.2193,-0.0842 -0.5444,0.12261 -0.6706,0.42642 -0.2699,0.64973003 -0.3351,1.41408003 -0.1258,2.08989003 0.067,0.21744 0.1846,0.31675 0.2736,0.49916 0.1026,0.21064 -0.055,0.38133 -0.1951,0.54131 0,0 -0.2483,0.27795 -0.2484,0.27793 -0.7123,-0.30277 -1.4339,-0.60816 -2.2301,-0.4279 -0.728,0.16483 -1.0946,0.79493 -0.806,1.48565 0.1297,0.3106 0.3739,0.43214 0.7589,0.37765 0.176,-0.0249 0.2048,-0.0779 0.2048,-0.37735 0,-0.31254 -0.024,-0.35113 -0.232,-0.37521 -0.172,-0.0199 -0.2469,0.02 -0.2893,0.15367 -0.083,0.26225 -0.219,0.12919 -0.219,-0.21462 0,-0.23545 0.062,-0.34265 0.3069,-0.52932 0.276,-0.21048 0.3571,-0.22896 0.8056,-0.18341 0.588,0.0597 1.0543,0.18743 1.2758,0.34938 0.1499,0.10968 0.1406,0.13477 -0.1565,0.42328 -0.1737,0.16871 -0.3158,0.36393 -0.3158,0.43384 0,0.1667 0.3833,0.55724 1.5586,1.93384 -0.1652,0.15314 -0.3756,0.33214 -0.555,0.60592 -0.084,0.1282 -0.1997,0.23306 -0.2571,0.23306 -0.1199,0 -1.1819,-1.01593 -1.1819,-1.13068 0,-0.13632 -0.2696,-0.34986 -0.4417,-0.34986 -0.2118,0 -0.2319,0.37702 -0.029,0.54089 0.3329,0.26861 0.717,0.66158 0.9841,1.00685 0.3532,0.45656 0.3381,0.38561 -0.5074,1.3698 -1.646,-1.79025 -2.0621,-2.44703 -2.3471,-2.2709 -0.1097,0.0678 -0.8513,1.58594 -0.9705,1.7346 -0.096,0.11973 -0.3674,0.45466 -0.479,0.59251 -0.1301,-0.0993 -0.7908,-0.62231 -0.9073,-0.62231 -0.149,0 -0.1104,-0.12536 0.2165,-0.70384 0.1699,-0.30051 0.2973,-0.62745 0.2831,-0.72653 -0.018,-0.12309 -0.1998,-0.26672 -0.5751,-0.4536 -0.5978,-0.29763 -0.5387,-0.2922 -1.1859,-0.4354 -0.4677,-0.10347 -0.479,-0.24872 -0.037,-0.47426 0.3356,-0.17125 0.467,-0.18584 1.312,-0.14579 0.8388,0.0398 0.9391,0.0289 0.9391,-0.10175 0,-0.41321 -1.8945,-0.48328 -2.3847,-0.0882 -0.498,0.40141 -0.9482,0.69037 -0.7392,1.02493 0.082,0.13108 0.1759,0.15571 0.4688,0.12269 0.2977,-0.0335 0.4987,0.0218 1.0722,0.29526 0.3882,0.18509 0.7065,0.37572 0.7065,0.42362 1e-4,0.0255 0.016,0.0691 -0.6828,0.85495 -1.1007,-0.49505 -1.215,-0.58126 -2.5776,-0.74414 -0.8924,-0.10669 -2.6201,0.0199 -3.1093,0.22782 -0.5357,0.22764 -1.6501,0.74999 -1.8012,0.74999 -0.1473,0 -0.4222,-0.31876 -0.5821,-0.67493 -0.07,-0.15568 -0.187,-0.28304 -0.2603,-0.28304 -0.2408,0 -1.0294,0.95797 -1.4249,0.95797 -0.1333,0 -0.5388,-0.83239 -0.6996,-1.43617 -0.2481,-0.93143 -0.5217,-0.66048 -0.5268,0.52174 0,0.60726 -0.3612,1.78534 -0.5434,1.78534 -0.2005,0 -0.4003,-0.5066 -2.0258,-1.13985 -0.4153,-0.16179 -1.1386,-0.16324 -1.7171,-0.003 -0.484,0.1337 -0.6687,0.24223 -1.0705,0.62927 -0.722,0.69532 -0.6223,0.68252 -1.469401,0.18876 -0.1016,-0.0592 -0.3845,-0.10817 -0.6288,-0.10887 -0.3567,-8e-4 -0.5153,0.0503 -0.8056,0.26055 -0.1987,0.14399 -0.3614,0.32035 -0.3614,0.39189 0,0.17234 -0.06,0.16422 -0.3246,-0.0441 -0.2875,-0.22616 -1.1645,-0.23468 -1.8962,-0.0184 -1.0399,0.30734 -1.3509,-0.0582 -12.87399955,0.0931 -0.8471,0.0114 -0.9396,0.0278 -0.9134,0.16479 0.038,0.19958 0.706,0.2832498 2.16089995,0.27077 1.9281,-0.0165 10.1217996,0.0977 10.8861996,0.1517798 0.4072,0.0288 0.8579,0.10106 1.0016,0.16048 0.6955,0.28783 1.6983,0.20745 1.6983,-0.13615 0,-0.2299898 0.1595,-0.2040498 0.2727,0.0442 0.1152,0.25284 0.3307,0.35725 1.0152,0.49193 1.460801,0.28742 1.266001,-0.7187298 1.500101,-0.35169 0.046,0.0719 0.084,0.19153 0.085,0.26596 0,0.32284 0.88,0.90083 1.6996,1.1203 1.1,0.29459 2.3817,-0.10186 3.3381,-1.03262 0.2074,-0.20182 0.4289,-0.34704 0.4923,-0.32274 0.2481,0.0952 0.49,1.02421 0.5663,2.17514 0.071,1.06618 0.1674,1.41985 0.336,1.22968 0.1111,-0.12537 0.6884,-1.85839 0.8437,-2.02847 0.088,-0.0964 0.1971,-0.0549 0.6217,0.23475 0.9399,0.64163 1.0583,0.63616 1.3738,-0.0635 0.2188,-0.48516 0.4357,-0.52997 1.1325,-0.23385 1.0644,0.45239 2.6168,0.65864 3.706,0.49243 0.8216,-0.12541 2.1606,-0.56394 2.5699,-0.8417 0.1715,-0.11636 0.3778,-0.21157 0.4584,-0.21157 0.1901,0 0.8239,0.69238 0.7678,0.83875 -0.072,0.18855 -0.8711,0.54207 -1.3674,0.60524 -0.2581,0.0328 -0.5182,0.0985 -0.5781,0.14588 -0.2816,0.22293 0.022,1.27432 0.4693,1.62635 0.6768,0.53238 2.2959,0.28862 2.2959,-0.34565 0,-0.20428 -0.1491,-0.22053 -0.3505,-0.0382 -0.081,0.0729 -0.358,0.17539 -0.6165,0.22777 -0.4122,0.0835 -0.5197,0.0735 -0.8736,-0.0816 -0.5657,-0.24782 -0.9305,-0.9754 -0.4891,-0.97548 0.2413,-6e-5 1.065,-0.30737 1.3667,-0.5099 0.4936,-0.33144 0.7262,-0.31467 0.651,-0.57219 -0.078,-0.26533 -0.6336,-1.09513 -0.734,-1.09513 -0.1983,0 -0.055,-0.23707 0.3084,-0.51094 0.214,-0.16127 0.3892,-0.32784 0.3892,-0.37013 0,-0.0422 0.069,-0.0767 0.1524,-0.0767 0.1712,4e-4 0.9906,1.03468 1.328,1.67612 0.1197,0.22753 0.2764,0.41123 0.3483,0.40825 0.2494,-0.0104 1.8067,-2.0933098 2.0453,-2.1532798 0.1256,-0.0315 0.6961,0.6825998 0.8278,0.8388598 -1.0742,1.117 -1.4822,1.50248 -1.4573,1.75531 0.033,0.33042 0.3346,0.33082 0.5297,5.8e-4 0.087,-0.147 0.2259,-0.33465 0.3092,-0.41702 0.2281,-0.22577 0.791,-0.97712 0.8718,-0.97712 0.042,0 0.2609,0.23131 0.9696,1.03639 -0.244,0.25683 -0.4784,0.50518 -1.0233,1.06508 -0.5452,0.56014 -0.5426,0.60409 0.076,1.25152 0.1831,0.19159 0.3329,0.394 0.3338,0.44975 0,0.17683 -0.8423,0.62927 -1.2791,0.6857 -0.3412,0.0441 -0.5089,0.0122 -0.9107,-0.17316 -0.2708,-0.12495 -0.5134,-0.28188 -0.539,-0.34875 -0.056,-0.14654 0.098,-0.7442 0.1919,-0.7442 0.037,0 0.1552,0.1199 0.2636,0.26643 0.2335,0.31586 0.4516,0.30512 0.5403,-0.0266 0.052,-0.19531 0.023,-0.27117 -0.1578,-0.41368 -0.4992,-0.39263 -1.064,-0.06 -1.134,0.66775 -0.04,0.41914 -0.028,0.45091 0.2554,0.66712 0.8646,0.65948 1.9976,0.65751 2.6999,-0.005 0.2454,-0.23143 0.5059,-0.22196 0.5059,0.0184 0,0.0743 -0.1066,0.3008 -0.2367,0.50338 -0.4941,0.76868 -0.293,1.874831 0.09,2.646141 0.1447,0.29137 0.4833,0.39908 0.7593,0.17991 0.074,-0.0583 0.2205,-0.2553 0.3266,-0.43766 0.1614,-0.27735 0.193,-0.46324 0.193,-1.1369 0,-0.748621 -0.019,-0.834901 -0.2664,-1.225301 -0.1464,-0.23101 -0.2457,-0.47383 -0.2204,-0.53959 0.047,-0.12292 0.4846,-0.17143 0.4895,-0.0543 0.01,0.22336 0.3736,0.29409 0.5323,0.36316 0.2823,0.12279 0.5735,0.23304 0.8803,0.27373 0.7146,0.0947 1.5458,-0.33423 1.5458,-1.13562 0,-0.38193 -0.1704,-0.63995 -0.5174,-0.78369 -0.3337,-0.13823 -0.6146,-0.0628 -0.818,0.21985 -0.1247,0.17326 -0.1372,0.24872 -0.057,0.34488 0.2523,0.30401 0.6961,0.21342 0.6961,-0.14209 0,-0.18759 0.093,-0.21004 0.2439,-0.0591 0.1953,0.19537 0.122,0.62995 -0.1504,0.89091 -0.2382,0.22824 -0.2938,0.24191 -0.8491,0.20905 -0.6472,-0.0383 -1.5958,-0.41471 -1.5958,-0.63322 0,-0.15306 0.9661,-1.00569 1.1623,-1.18541 -0.622,-0.63061 -1.5635,-1.54377 -1.4959,-1.73172 0.037,-0.10198 0.7508,-0.84021 0.8888,-0.98542 0.293,0.33899 0.5551,0.70246 0.8057,1.07353 0.16,0.23691 0.3558,0.7899 0.6842,0.46146 0.1939,-0.19386 0.1374,-0.5792 -0.094,-0.63879 -0.1542,-0.0398 -1.077,-0.94667 -1.1472,-1.1274 -0.022,-0.0577 0.8039,-1.0696498 0.9183,-0.9000498 0.1186,0.1758098 1.1585,1.3981598 1.5959,1.8757598 0.2807,0.30656 0.444,0.42137 0.5446,0.38277 0.079,-0.0303 0.2809,-0.34043 0.4486,-0.68913 0.3367,-0.7 0.8813,-1.4879 0.999,-1.44522 0.1617,0.0586 0.8727,0.78343 0.8727,0.8896 0,0.0617 -0.084,0.18701 -0.1862,0.27823 -0.2303,0.20518 -0.4384,0.67885 -0.3731,0.84911 0.1055,0.27476 1.5338,1.01005 1.9694,1.01381 0.1958,0.002 0.2823,0.15569 0.1661,0.29571 -0.051,0.0619 -0.3728,0.22221 -0.7143,0.35618 -0.5312,0.20839 -0.698,0.23583 -1.1551,0.18992 -0.8866,-0.0891 -0.9574,-0.24006 -0.912,-0.004 0.046,0.23667 0.4701,0.41239 1.0975,0.45434 0.512,0.0343 0.5951,0.0114 1.3499,-0.37462 0.9022,-0.46107 1.2213,-0.73867 1.1803,-1.02698 -0.024,-0.1718 -0.091,-0.19859 -0.5936,-0.23813 -0.5519,-0.0434 -1.2963,-0.32858 -1.6974,-0.65004 -0.1729,-0.13862 -0.1729,-0.13945 0,-0.45508 0.095,-0.17393 0.2328,-0.3528 0.3056,-0.3975 0.1729,-0.10623 1.3982,0.42745 1.3386,0.583 -0.057,0.1492 0.249,0.0608 1.1418,0.22192 0.8439,0.15236 2.5914,0.0674 3.4401,-0.16719 0.7646,-0.21141 1.4319,-0.56675 1.8663,-0.78219 0.1189,0.13035 0.7658,0.86574 0.8804,0.86492 0.1513,-8e-4 0.7106,-0.3114 0.9999,-0.5548 0.1501,-0.12631 0.3211,-0.22964 0.3801,-0.22964 0.1636,0 0.4048,0.6276 0.4722,1.22868 0.042,0.37507 0.1073,0.56732 0.2153,0.63449 0.232,0.14431 0.3212,-0.0652 0.3228,-0.75775 8e-4,-0.60179 0.1375,-1.34241 0.2744,-1.49298 0.041,-0.0454 0.075,-0.13648 0.075,-0.20218 0,-0.13436 0.2077,-0.36825 0.327,-0.36825 0.1165,0 0.5432,0.60963 0.6795,0.60963 0.051,0 0.204,0.11579 0.3396,0.25735 0.357,0.3726 0.8976,0.52646 1.8499,0.52646 0.6677,0 0.91,-0.0392 1.3514,-0.21856 0.5989,-0.24335 0.8606,-0.45283 1.1685,-0.93541 0.2377,-0.37244 0.3555,-0.40032 0.6261,-0.1482 0.2789,0.25985 0.9469,0.31919 1.3642,0.1212 0.1818,-0.0862 0.3493,-0.22818 0.3721,-0.31532 0.05,-0.1899398 0.1793,-0.1978898 0.4079,-0.0251 0.2397,0.18135 0.7413,0.15842 1.2262,-0.056 0.4902,-0.2168498 0.2316,-0.1847798 14.4552,-0.1208598 0,-0.42533 0.1004,-0.41413 -0.7403,-0.4516 z m -70.355901,0.47774 c -0.4236,0.02 -0.5442,-3.3e-4 -0.5153,-0.0871 0.045,-0.13601 1.013,-0.16021 1.0465,-0.0261 0.012,0.0493 -0.2185,0.0984 -0.5312,0.11323 z m 2.73,0.3340998 c -0.9091,-0.0549 -1.5567,-0.3718898 -1.3268,-0.6491698 0.1512,-0.18229 0.6187,-0.36425 0.9358,-0.36425 0.335,0 0.916301,0.28996 0.995601,0.49658 0.089,0.2324498 -0.381501,0.5303598 -0.604601,0.5168398 z m 4.526801,0.75509 c -0.8857,0.33962 -1.6986,0.29656 -2.5234,-0.1337 -0.3116,-0.16251 -0.8273,-0.77959 -0.8274,-0.9899698 -10e-5,-0.26664 0.5535,-0.74268 0.7461,-0.89796 1.7517,-1.41213 4.3051,0.58777 4.3051,0.81142 0,0.2027398 -1.0828,0.9733898 -1.7004,1.2102098 z m 8.3628,-3.0351698 c 0.7758,-0.21144 2.0418,-0.2565 2.9176,-0.10382 0.8695,0.15156 1.7728,0.48836 1.8071,0.6738 0.031,0.16963 -1.0111,0.87133 -1.2919,0.86958 -0.1157,-5.8e-4 -0.3672,-0.0577 -0.5588,-0.12682 -0.8368,-0.3015 -2.5812,-0.0257 -2.6915,0.0846 -0.3568,0.11975 -0.7005,0.21483 -0.7639,0.21128 -0.3002,-0.0168 -1.3781,-0.65392 -1.3781,-0.81454 0,-0.11438 1.0975,-0.55912 1.9595,-0.79405 z m 2.8643,1.73946 c -0.032,0.0825 -0.2438,0.14234 -0.6286,0.17743 -1.4343,0.1307698 -2.105,0.1182298 -2.105,-0.0395 0,-0.19817 0.8787,-0.31198 2.1527,-0.27887 0.5049,0.0131 0.6193,0.0409 0.5809,0.14082 z m -6.2567,-1.60394 c 0.1167,-8e-4 1.0643,0.86986 0.531,0.86986 -0.151,0 -0.7509,0.69916 -0.8793,0.69077 -0.1324,-0.008 -0.5702,-0.50259 -0.5702,-0.64323 0,-0.13654 0.7802,-0.91584 0.9185,-0.9174 z m -1.6781,3.7220898 c 0,-0.009 -0.2386,0.54431 -0.3049,0.54431 -0.037,0 -0.068,-0.25561 -0.068,-0.568 0,-0.45009 -0.054,-0.6806 -0.2587,-1.11041 -0.4346,-0.9111898 -0.521,-0.74001 -0.3581,-1.1280398 0.2799,-0.66687 0.6447,-2.10753 0.7797,-1.41059 0.018,0.0916 0.106,0.26023 0.196,0.37466 0.2254,0.28657 0.2089,0.38505 -0.1412,0.84371 -0.4207,0.55121 -0.4528,0.7409698 -0.1905,1.1269998 0.5217,0.76765 0.7874,0.31275 0.3454,1.32736 z m 0.4678,-1.02332 c -0.088,0 -0.5791,-0.60128 -0.5791,-0.70862 0,-0.16722 0.4453,-0.7644398 0.5732,-0.7687398 0.1186,-0.005 0.5364,0.54686 0.6402,0.6760998 -0.1374,0.17997 -0.606,0.80126 -0.6343,0.80126 z m 1.7302,0.71851 c -0.2694,0.30611 -0.37,0.30111 -0.8777,-0.0435 -1.019,-0.69169 -0.2994,-0.63239 -0.2994,-0.85968 0,-0.11539 0.2229,-0.33781 0.3385,-0.33781 0.1722,0 1.0549,0.72292 1.0522,0.86167 0,0.077 -0.098,0.24764 -0.2136,0.37938 z m 0.9546,-1.06486 c -0.5469,0.5709 -0.6239,-0.002 -0.8633,-0.002 -0.1211,0 -0.5718,-0.45007 -0.5717,-0.5708598 0,-0.0832 0.8175,-0.8226 0.9095,-0.8226 0.1058,0 0.5866,0.45672 1.0569,0.61192 0.378,0.12476 0.3812,0.3051098 0.01,0.4284298 -0.3059,0.10094 -0.53,0.35512 -0.5389,0.35512 z m 6.5743,0.42466 c -0.4238,0.26065 -0.9591,0.352 -1.0813,0.45891 -0.1226,0.10738 -0.4768,0.0205 -0.8143,0.19166 -0.6085,0.30857 -2.4581,0.20017 -3.7405,-0.21922 -0.9593,-0.31371 -1.075,-0.44625 -0.5868,-0.67244 0.6358,-0.29459 0.5778,-0.7611298 1.5122,-0.41418 0.5461,0.2028 1.8804,0.18182 2.6671,-0.0419 0.9973,-0.2836898 1.0296,-0.2847998 1.4902,-0.0514 0.4936,0.25014 0.673,0.41543 0.8552,0.56297 z m 0.6863,-0.42696 c -0.047,-4.5e-4 -1.0317,-0.6957398 -1.1841,-0.6961698 -0.1633,-3.8e-4 -0.131,-0.15645 0.053,-0.25475 0.263,-0.14072 0.83,-0.70352 1.0698,-0.70352 0.1736,0 1.1242,0.65184 1.1153,0.76479 -0.01,0.0859 -1.0192,0.8900098 -1.0536,0.8896498 z m 3.5726,0.39221 c -0.012,0.0117 -0.4536,0.52569 -0.5141,0.54903 -0.1064,0.041 -0.4583,-0.8446 -1.0118,-1.439 -0.2082,-0.2235998 -0.3786,-0.4287598 -0.3786,-0.4558998 0,-0.0272 0.094,-0.15054 0.2085,-0.2742 0.1147,-0.12367 0.377,-0.58375 0.5831,-1.02244 0.3929,-0.8365 0.5476,-0.9576 0.7688,-0.60163 0.2913,0.46897 1.2728,1.53489 1.5772,1.86993 -1.1976,1.1038698 -0.3823,0.37601 -1.2331,1.3742098 z m 3.6391,-10.38952983 c 0.4882,-0.0727 0.5027,1.36373003 0.023,2.26040003 -0.01,0 -0.083,0.16036 -0.1524,0.16036 -0.3199,0 -0.4354,-2.33654003 0.1295,-2.42076003 z m -0.4509,3.43228003 c 0.3504,-0.35034 0.196,-0.52128 0.4662,-0.28153 0.2626,0.23311 0.3051,0.44192 0.1506,0.74066 h 1e-4 c -0.2436,0.47111 -0.2702,0.36247 -0.8109,-0.26507 z m -0.8239,1.02962 c -6e-4,-0.0509 0.1168,-0.20574 0.2611,-0.34405 0.249,-0.23856 0.2703,-0.24373 0.4137,-0.1006 0.3647,0.36396 0.266,1.2123 0.8166,0.32647 0.1513,-0.24335 0.3039,-0.44247 0.339,-0.44247 0.1033,0 0.6939,0.68694 0.6939,0.80705 0,0.14456 -1.0376,1.28314 -1.1317,1.28314 -0.1015,0 -1.3909,-1.41622 -1.3926,-1.52958 z m 1.3834,2.14522 c 0.034,0.004 0.1768,0.16039 0.8928,1.0481 -0.3354,0.34573 -0.8242,0.86185 -0.9101,0.86185 -0.085,0 -0.6279,-0.52834 -0.9635,-0.84845 0.4777,-0.54925 0.9257,-1.06787 0.9808,-1.0615 z m -1.2256,3.3033298 c -0.076,1.2e-4 -0.8032,-0.8714998 -0.8783,-0.9594198 0.1227,-0.13118 0.8062,-0.83774 0.8062,-0.95276 0,-0.19276 0.2633,-0.0782 0.3919,0.17045 0.2017,0.38993 0.1886,0.12805 0.424,0.52658 0.1753,0.29663 0.1735,0.30064 -0.3786,0.8885598 -0.1687,0.17958 -0.333,0.32655 -0.3652,0.32659 z m 0.9284,7.955311 c -0.3993,-0.3993 -0.425,-1.23613 -0.066,-2.141961 0.1474,-0.37177 0.2694,-0.40546 0.4632,-0.12789 0.6314,0.904151 0.2724,2.939531 -0.3972,2.269851 z m 0.1753,-3.774891 c 0.1144,0 0.2177,0.18492 0.2177,0.3897 0,0.19147 -0.2514,0.22686 -0.3467,0.0488 -0.1034,-0.19316 -0.031,-0.4385 0.129,-0.4385 z m 1.2594,-0.84225 c 0.024,0 -0.1102,0.22323 -0.3762,0.52507 -0.3562,0.4042 -0.3798,0.41625 -0.5265,0.26956 -0.084,-0.0845 -0.1885,-0.24549 -0.2312,-0.3578 -0.1014,-0.26675 -0.2234,-0.25957 -0.2929,0.0172 -0.093,0.36937 -0.3025,0.36576 -0.628,-0.0104 -0.1613,-0.18667 -0.2933,-0.36339 -0.2933,-0.39273 0,-0.0779 1.0451,-1.20577 1.0451,-1.31138 0,-0.0408 0.049,-0.0708 0.1089,-0.0668 0.1369,0.009 1.1987,1.18972 1.1941,1.3277 z m -0.6206,-2.43253 c -0.2077,0.26299 -0.4364,0.47986 -0.5082,0.48192 -0.148,0.004 -0.9868,-0.91369 -0.943,-1.03193 0.049,-0.13129 0.8586,-0.9651798 0.9375,-0.9651798 0.083,0 0.5402,0.5014198 0.7531,0.8262598 0.133,0.20301 0.1242,0.2284 -0.2394,0.68893 z m 0.7565,-0.88514 c -0.1352,0.0971 -0.1434,0.0917 -0.6385,-0.41876 -0.6099,-0.6290798 -0.5424,-0.5718198 0.4079,-1.6310998 0.7387,0.88894 0.969,1.07726 0.969,1.15576 0,0.0666 -0.6031,0.7967698 -0.7384,0.8940998 z m 4.1693,-0.44828 c -0.2063,0.17124 -0.8162,1.09273 -0.9197,1.38974 v 0 c -0.049,0.14155 -0.1349,0.25594 -0.1901,0.25416 -0.055,-0.002 -0.3646,-0.3251 -0.6875,-0.7185 -1.0688,-1.3017098 -1.2438,-1.3632198 -1.0183,-1.5026398 0.051,-0.0315 0.2106,-0.22003 0.3546,-0.41881 0.3961,-0.54729 1.2245,-1.38192 1.2927,-1.30253 0.033,0.0386 0.1469,0.27758 0.2528,0.53109 0.4886,1.17039 1.365,1.39439 0.9155,1.7674898 z m 10.5549,-2.2374798 c 0.2225,0.0854 0.9937,0.69974 0.9937,0.79163 0,0.12037 -0.5168,0.74239 -0.5942,0.73873 -0.1159,-0.006 -1.0549,-0.73923 -1.0577,-0.82649 -0.01,-0.16654 0.5396,-0.74934 0.6582,-0.70387 z m -8.219,0.73613 c 0.043,-0.13056 0.2417,-0.049 0.769,-0.30765 0.83,-0.4071 1.6449,-0.56308 2.7549,-0.52733 0.5811,0.0187 1.295,0.10003 1.6391,0.18676 0.8929,0.22493 1.6509,0.53505 1.6815,0.68804 0.017,0.0867 -0.1899,0.26257 -0.5886,0.49943 -0.8439,0.50137 -0.4328,0.31603 -2.0944,0.0264 -1.7153,-0.29896 -2.7799,0.41537 -3.0709,0.39974 -0.1223,-0.006 -1.1612,-0.7617 -1.1378,-0.82703 0.01,-0.0233 0.03,-0.0855 0.047,-0.13838 z m 4.8939,1.26213 c -0.2227,0.12811 -2.5352,0.16722 -2.8444,0.0481 -0.1317,-0.0508 -0.2395,-0.12579 -0.2395,-0.16676 0,-0.21555 2.6635,-0.29513 3.0404,-0.0908 0.2008,0.10887 0.2026,0.11792 0.043,0.2095 z m -5.5182,0.7541598 c -0.2638,0 -0.9286,-0.6906698 -1.036,-0.7538698 -0.017,-0.0104 0.1782,-0.21647 0.4328,-0.45931 0.4996,-0.47651 0.7422,-0.54221 0.9902,-0.26812 0.2542,0.28081 0.9152,0.58574 0.9152,0.64996 0,0.0416 -1.0567,0.8313398 -1.3022,0.8313398 z m 7.2562,0.38058 c -0.7357,0.41144 -1.5307,0.60924 -1.5155,0.60924 -1.1236,0.32508 -3.3279,0.22257 -4.1584,-0.19336 -0.178,-0.0891 -0.441,-0.1904 -0.5845,-0.22501 -0.2728,-0.0658 -0.4795,-0.19905 -0.4795,-0.30918 0,-0.13417 1.0813,-0.78465 1.2982,-0.78098 0.1243,0.002 0.3827,0.0626 0.5743,0.13428 0.8098,0.30328 2.6259,0.24431 3.4257,-0.11129 0.4784,-0.2126998 0.6515,-0.0442 1.7765,0.68792 z m 0.3164,-0.65121 c -0.5059,-0.4374598 -0.8975,-0.4296698 -0.8171,-0.6389998 0.029,-0.0745 0.1011,-0.13546 0.161,-0.13546 0.1582,0 0.8488,-0.69702 1.0179,-0.69587 0.136,8e-4 0.8677,0.56402 0.9711,0.74725 0.093,0.16543 0.036,0.2438 -0.4774,0.6493298 -0.01,-0.005 -0.431,0.34467 -0.4932,0.34084 -0.032,-0.002 -0.1946,-0.12214 -0.3623,-0.26709 z m 1.3174,1.41024 c -0.1079,-0.11828 -0.5632,-0.60634 -0.6308,-0.73366 -0.069,-0.13033 0.8513,-0.92713 0.9918,-1.0553298 0.3316,0.3845598 0.6745,0.7751798 0.6511,0.8339398 -0.028,0.0702 -0.9199,0.87121 -1.0121,0.95505 z m 1.2827,-1.33564 c -0.1484,0.0273 -0.5858,-0.5441698 -0.6944,-0.6755098 0.5248,-0.73085 0.6492,-0.97387 0.9088,-0.57766 0.3635,0.55476 0.5399,0.3518 0.1673,0.86675 -0.1451,0.2005998 -0.3169,0.3744898 -0.3817,0.3864198 z m 1.0992,-0.14817 c -0.5606,1.10632 -0.2699,1.77469 -0.9486,0.60764 0.4409,-0.48266 0.4846,-0.51866 0.9172,-1.1408698 -0.058,-0.0792 -0.6167,-0.86437 -0.6932,-0.86437 -0.1497,0 -0.2766,-0.35652 -0.1867,-0.52456 0.1511,-0.28224 0.2971,-0.19839 0.4617,0.26504 0.2434,0.68542 0.6694,0.93274 0.6694,1.12303 0,0.0552 -0.099,0.29549 -0.2198,0.5340898 z m 5.7297,-0.4093598 c -0.1402,1.1236798 -2.1362,1.6792498 -3.1584,1.2927898 -1.0717,-0.40517 -1.27,-0.74308 -1.7616,-1.3363598 l 0.2494,-0.26055 c 0.864,-0.90257 2.7355,-1.33974 3.6896,-0.86185 0.2155,0.10794 0.5345,0.33302 0.7089,0.50024 0.2884,0.27649 0.3131,0.33685 0.2721,0.66573 z m 2.2218,0.18253 c -0.2788,0.1953198 -1.0033,0.1751398 -1.3523,-0.0377 -0.3338,-0.20352 -0.3505,-0.29217 -0.09,-0.47502 0.2313,-0.16203 1.0877,-0.18294 1.4135,-0.0344 0.2734,0.12455 0.2859,0.36673 0.028,0.54717 z m 1.71,-0.17836 c -0.1835,0.0704 -0.6021,0.0671 -0.6746,-0.006 -0.1379,-0.13796 -0.033,-0.20322 0.3287,-0.20322 0.3979,0 0.5891,0.11529 0.3459,0.20861 z"
     id="path1" />
</svg>
