<svg
   width="72.802696mm"
   height="3.7733901mm"
   viewBox="0 0 72.802694 3.7733902"
   version="1.1"
   id="svg1"
   xmlns="http://www.w3.org/2000/svg"
   xmlns:svg="http://www.w3.org/2000/svg">
  <defs
     id="defs1" />
  <path
     d="m 36.4,2.09124 c 7.7137,0.005 15.8293,0.009 22.4138,0.005 1.1687,8.7e-4 2.3924,-0.0731 3.5558,0.0157 0.3803,0.029 0.7934,0.22264 1.094,0.56583 0.3713,0.42346 0.3759,0.62012 1.1068,0.80086 0.1441,0.0356 0.3694,-0.0527 0.4901,-0.13391 0.084,-0.0625 0.051,-0.0388 0.1436,-0.10369 l 0.551,0.53236 -0.1895,-1.38313 -0.2862,-0.40647 c 0.7235,0.41881 1.1266,1.2123 2.0956,0.94918 0.042,-0.0114 0.065,-0.0125 0.095,-0.043 C 67.2063,2.81397 66.8753,2.78313 66.6328,2.66108 66.3664,2.5268 66.163,2.2378 65.9756,2.0126 c 0.3049,0.2198 0.6359,0.50233 0.9936,0.62076 0.1,-0.0185 0.102,-0.0311 0.1671,-0.10315 L 66.635,2.13646 c 0.088,-0.0209 0.085,-0.0127 0.1612,0.034 0.7064,0.4315 0.9912,0.80101 1.9814,0.27673 -0.4293,-0.0616 -0.8115,-0.12505 -1.2189,-0.28051 l 3.7865,-0.18666 c 0.4324,-0.0243 1.0576,0.0237 1.4575,-0.12391 -0.04,-0.0771 -0.048,-0.0839 -0.1308,-0.11346 -0.1121,-0.0402 -0.2685,-0.0331 -0.3892,-0.0402 -2.2768,-0.138 -3.4822,-0.23935 -4.7748,-0.22454 0.1896,-0.0875 0.4069,-0.2039 0.6151,-0.2307 0.1997,-0.0257 0.4768,0.0203 0.6588,-0.0452 -0.4874,-0.19963 -0.8515,-0.33748 -1.3593,-0.12212 -0.1404,0.0595 -0.7966,0.5155 -0.8601,0.49055 0.1666,-0.15018 0.3321,-0.29471 0.4671,-0.47528 l -0.04,-0.0612 C 66.5587,1.04646 66.2933,1.47554 65.949,1.704 66.5195,0.88478 66.7602,0.85753 67.51,0.76358 67.1032,0.66848 66.6857,0.58008 66.3098,0.82088 65.8987,1.08453 65.6894,1.46869 65.2191,1.68282 65.3408,1.51165 65.4534,1.35805 65.5132,1.15516 65.6205,0.78997 65.6387,0.3786 65.6809,0 65.6039,0.071 65.1603,0.5097 65.1037,0.50295 64.9809,0.48825 64.6761,0.19984 64.155,0.35532 63.746,0.4772 63.5773,0.86162 63.2991,1.14337 63.0695,1.37566 62.6958,1.52031 62.3749,1.54951 62.3119,1.55551 49.3964,1.56251 36.4013,1.56271 23.4056,1.56247 10.4908,1.55471 10.4277,1.54951 10.1069,1.52031 9.7331,1.37566 9.5036,1.14337 9.2254,0.86162 9.0567,0.4772 8.6477,0.35532 8.1266,0.19982 7.8218,0.48828 7.699,0.50295 7.642,0.50995 7.1992,0.07107 7.1218,0 c 0.042,0.3786 0.06,0.78999 0.1677,1.15516 0.06,0.20289 0.1724,0.35649 0.2941,0.52766 C 7.1133,1.46867 6.904,1.08453 6.4929,0.82088 6.117,0.57999 5.6995,0.66841 5.2926,0.76358 6.0425,0.85748 6.2833,0.88478 6.8537,1.704 6.5093,1.47554 6.244,1.04644 5.8131,1.03396 l -0.04,0.0612 C 5.9082,1.27573 6.0737,1.42026 6.2403,1.57044 6.1763,1.59534 5.5206,1.13942 5.3802,1.07989 4.8725,0.86453 4.5083,1.00239 4.0209,1.20201 c 0.182,0.0655 0.4591,0.0195 0.6588,0.0452 0.2082,0.0268 0.4255,0.14312 0.6151,0.2307 -1.2926,-0.0148 -2.4979,0.0865 -4.7748,0.22454 -0.1206,0.007 -0.2771,0 -0.3892,0.0402 C 0.0478,1.77215 0.0398,1.77895 0,1.85611 0.3999,2.00379 1.0251,1.95571 1.4575,1.98002 L 5.244,2.16668 C 4.8366,2.32216 4.4544,2.38557 4.0251,2.44719 5.0153,2.97147 5.3,2.60196 6.0065,2.17046 c 0.076,-0.0468 0.074,-0.0548 0.1612,-0.034 L 5.6664,2.53021 c 0.065,0.0721 0.067,0.0847 0.1671,0.10315 C 6.1912,2.51495 6.5222,2.2324 6.8271,2.0126 6.6397,2.23778 6.4363,2.52679 6.1698,2.66108 5.9274,2.78313 5.5964,2.81393 5.3327,2.88997 c 0.03,0.0304 0.053,0.0316 0.095,0.043 0.969,0.2631 1.3721,-0.5304 2.0956,-0.94918 L 7.2371,2.39026 7.0476,3.77339 7.5986,3.24103 c 0.092,0.0649 0.06,0.0412 0.1436,0.10369 0.1206,0.0813 0.3459,0.16958 0.4901,0.13391 0.7308,-0.18074 0.7355,-0.3774 1.1068,-0.80086 0.3006,-0.34319 0.7137,-0.5369 1.094,-0.56583 1.1633,-0.0887 2.3871,-0.0144 3.5558,-0.0157 6.5833,0.003 14.6993,8.7e-4 22.4137,-0.005 z M 64.4342,0.93442 c 0.1108,-0.0243 0.2488,-8.7e-4 0.3903,0.10011 0.072,0.45842 -0.7833,0.54251 -1.2456,0.5999 0.2391,-0.31378 0.4751,-0.56684 0.8553,-0.7 z M 9.2224,1.63444 C 8.7601,1.57694 7.9047,1.49294 7.9768,1.03453 8.1184,0.93348 8.2563,0.91015 8.3671,0.93444 c 0.3802,0.13315 0.6162,0.38621 0.8553,0.7 z M 64.8693,2.77681 C 64.407,3.09208 63.8698,2.36171 63.5954,2.06457 l 0.5387,0.0714 c 0.2766,0.0618 0.5831,0.1968 0.732,0.45136 0.049,0.0834 0.028,0.1008 0,0.18954 z M 7.9354,2.58728 C 8.0843,2.33271 8.3908,2.1977 8.6674,2.13591 l 0.5387,-0.0714 c -0.2744,0.29714 -0.8116,1.0275 -1.2739,0.71223 -0.024,-0.0887 -0.045,-0.10604 0,-0.18953 z"
     id="path1" />
</svg>
